<svg width="30" height="30" viewBox="0 0 30 30" fill="none" xmlns="http://www.w3.org/2000/svg">
<circle cx="15" cy="15" r="15" fill="#EEEEEE"/>
<path d="M7.70898 12.2077H22.2923M11.1348 8.45768V6.79102M18.8432 8.45768V6.79102M19.3757 8.45768H10.6257C9.8521 8.45768 9.11024 8.76497 8.56326 9.31195C8.01628 9.85894 7.70898 10.6008 7.70898 11.3743V19.291C7.70898 20.0646 8.01628 20.8064 8.56326 21.3534C9.11024 21.9004 9.8521 22.2077 10.6257 22.2077H19.3757C20.1492 22.2077 20.8911 21.9004 21.438 21.3534C21.985 20.8064 22.2923 20.0646 22.2923 19.291V11.3743C22.2923 10.6008 21.985 9.85894 21.438 9.31195C20.8911 8.76497 20.1492 8.45768 19.3757 8.45768Z" stroke="#4F4F4F" stroke-width="1.5" stroke-linecap="round" stroke-linejoin="round"/>
</svg>
