<svg width="13" height="13" viewBox="0 0 13 13" fill="none" xmlns="http://www.w3.org/2000/svg">
<path fill-rule="evenodd" clip-rule="evenodd" d="M6.41667 1.16667C5.72723 1.16667 5.04454 1.30246 4.40758 1.5663C3.77062 1.83014 3.19186 2.21685 2.70436 2.70436C2.21685 3.19186 1.83014 3.77062 1.5663 4.40758C1.30246 5.04454 1.16667 5.72723 1.16667 6.41667C1.16667 7.10611 1.30246 7.78879 1.5663 8.42575C1.83014 9.06271 2.21685 9.64147 2.70436 10.129C3.19186 10.6165 3.77062 11.0032 4.40758 11.267C5.04454 11.5309 5.72723 11.6667 6.41667 11.6667C7.80905 11.6667 9.14441 11.1135 10.129 10.129C11.1135 9.14441 11.6667 7.80905 11.6667 6.41667C11.6667 5.02428 11.1135 3.68892 10.129 2.70436C9.14441 1.71979 7.80905 1.16667 6.41667 1.16667ZM0 6.41667C0 2.87292 2.87292 0 6.41667 0C9.96042 0 12.8333 2.87292 12.8333 6.41667C12.8333 9.96042 9.96042 12.8333 6.41667 12.8333C2.87292 12.8333 0 9.96042 0 6.41667Z" fill="#0F9935"/>
<path fill-rule="evenodd" clip-rule="evenodd" d="M9.68735 4.66663L5.18052 9.17346L2.91602 6.47088L3.79743 5.70671L5.24177 7.46255L8.86252 3.8418L9.68735 4.66663Z" fill="#0F9935"/>
</svg>
