<svg width="32" height="32" viewBox="0 0 32 32" fill="none" xmlns="http://www.w3.org/2000/svg">
<circle cx="16" cy="16" r="16" fill="white"/>
<path d="M16.8885 10.6672C16.8885 10.4315 16.7948 10.2054 16.6281 10.0387C16.4614 9.87197 16.2353 9.77832 15.9996 9.77832C15.7638 9.77832 15.5377 9.87197 15.371 10.0387C15.2043 10.2054 15.1107 10.4315 15.1107 10.6672V15.1117H10.6662C10.4305 15.1117 10.2044 15.2053 10.0377 15.372C9.87099 15.5387 9.77734 15.7648 9.77734 16.0005C9.77734 16.2363 9.87099 16.4624 10.0377 16.6291C10.2044 16.7958 10.4305 16.8894 10.6662 16.8894H15.1107V21.3339C15.1107 21.5696 15.2043 21.7957 15.371 21.9624C15.5377 22.1291 15.7638 22.2228 15.9996 22.2228C16.2353 22.2228 16.4614 22.1291 16.6281 21.9624C16.7948 21.7957 16.8885 21.5696 16.8885 21.3339V16.8894H21.3329C21.5686 16.8894 21.7947 16.7958 21.9614 16.6291C22.1281 16.4624 22.2218 16.2363 22.2218 16.0005C22.2218 15.7648 22.1281 15.5387 21.9614 15.372C21.7947 15.2053 21.5686 15.1117 21.3329 15.1117H16.8885V10.6672Z" fill="black"/>
</svg>
