<svg width="14" height="14" viewBox="0 0 14 14" fill="none" xmlns="http://www.w3.org/2000/svg">
<path d="M7 0.875C5.78859 0.875 4.60439 1.23423 3.59713 1.90725C2.58988 2.58027 1.80483 3.53687 1.34124 4.65606C0.877654 5.77526 0.756358 7.00679 0.992693 8.19493C1.22903 9.38306 1.81238 10.4744 2.66897 11.331C3.52557 12.1876 4.61694 12.771 5.80507 13.0073C6.99321 13.2436 8.22474 13.1223 9.34394 12.6588C10.4631 12.1952 11.4197 11.4101 12.0928 10.4029C12.7658 9.39562 13.125 8.21141 13.125 7C13.1231 5.37612 12.4772 3.81928 11.329 2.67102C10.1807 1.52276 8.62389 0.876853 7 0.875ZM7 12.25C5.60762 12.25 4.27226 11.6969 3.28769 10.7123C2.30313 9.72774 1.75 8.39239 1.75 7C1.75 5.60761 2.30313 4.27226 3.28769 3.28769C4.27226 2.30312 5.60762 1.75 7 1.75V7L10.7104 10.7104C10.2239 11.1988 9.64561 11.5863 9.00885 11.8505C8.37209 12.1147 7.6894 12.2505 7 12.25Z" fill="#2466BF"/>
</svg>
