<svg width="51" height="51" viewBox="0 0 51 51" fill="none" xmlns="http://www.w3.org/2000/svg">
<g filter="url(#filter0_d_342_2343)">
<circle cx="25.5" cy="21.5" r="17.5" fill="white"/>
<path fill-rule="evenodd" clip-rule="evenodd" d="M30.0859 21.5008C30.0859 21.6942 30.0091 21.8796 29.8724 22.0164C29.7356 22.1531 29.5502 22.2299 29.3568 22.2299H20.2422C20.0488 22.2299 19.8633 22.1531 19.7266 22.0164C19.5898 21.8796 19.513 21.6942 19.513 21.5008C19.513 21.3074 19.5898 21.1219 19.7266 20.9852C19.8633 20.8484 20.0488 20.7716 20.2422 20.7716H29.3568C29.5502 20.7716 29.7356 20.8484 29.8724 20.9852C30.0091 21.1219 30.0859 21.3074 30.0859 21.5008Z" fill="#181818"/>
<path fill-rule="evenodd" clip-rule="evenodd" d="M31.1797 21.4999C31.1796 21.6933 31.1028 21.8788 30.966 22.0155L27.6848 25.2967C27.5481 25.4335 27.3626 25.5104 27.1692 25.5105C26.9757 25.5106 26.7902 25.4338 26.6534 25.2971C26.5166 25.1604 26.4397 24.9749 26.4396 24.7815C26.4395 24.588 26.5163 24.4025 26.653 24.2657L29.4195 21.4999L26.6538 18.7342C26.517 18.5974 26.4403 18.4119 26.4403 18.2184C26.4404 18.025 26.5173 17.8395 26.6541 17.7028C26.7909 17.5661 26.9765 17.4893 27.1699 17.4894C27.3633 17.4894 27.5488 17.5664 27.6855 17.7032L30.9668 20.9844C31.1033 21.1213 31.1798 21.3067 31.1797 21.4999Z" fill="#181818"/>
</g>
<defs>
<filter id="filter0_d_342_2343" x="0" y="0" width="51" height="51" filterUnits="userSpaceOnUse" color-interpolation-filters="sRGB">
<feFlood flood-opacity="0" result="BackgroundImageFix"/>
<feColorMatrix in="SourceAlpha" type="matrix" values="0 0 0 0 0 0 0 0 0 0 0 0 0 0 0 0 0 0 127 0" result="hardAlpha"/>
<feOffset dy="4"/>
<feGaussianBlur stdDeviation="4"/>
<feComposite in2="hardAlpha" operator="out"/>
<feColorMatrix type="matrix" values="0 0 0 0 0 0 0 0 0 0 0 0 0 0 0 0 0 0 0.15 0"/>
<feBlend mode="normal" in2="BackgroundImageFix" result="effect1_dropShadow_342_2343"/>
<feBlend mode="normal" in="SourceGraphic" in2="effect1_dropShadow_342_2343" result="shape"/>
</filter>
</defs>
</svg>
