<svg width="20" height="20" viewBox="0 0 20 20" fill="none" xmlns="http://www.w3.org/2000/svg">
<path d="M9.9974 8.33268C11.8383 8.33268 13.3307 6.8403 13.3307 4.99935C13.3307 3.1584 11.8383 1.66602 9.9974 1.66602C8.15645 1.66602 6.66406 3.1584 6.66406 4.99935C6.66406 6.8403 8.15645 8.33268 9.9974 8.33268Z" stroke="#181818" stroke-width="1.5"/>
<path d="M16.6637 14.9987C16.6648 14.862 16.6654 14.7231 16.6654 14.582C16.6654 12.5112 13.6804 10.832 9.9987 10.832C6.31703 10.832 3.33203 12.5112 3.33203 14.582C3.33203 16.6529 3.33203 18.332 9.9987 18.332C11.8579 18.332 13.1987 18.2012 14.1654 17.9679" stroke="#181818" stroke-width="1.5" stroke-linecap="round"/>
</svg>
