<svg width="30" height="30" viewBox="0 0 30 30" fill="none" xmlns="http://www.w3.org/2000/svg">
<circle cx="15" cy="15" r="15" fill="#EEEEEE"/>
<path d="M21.6657 21.6666L18.2907 18.2916M18.2907 18.2916C18.8324 17.7499 19.2621 17.1068 19.5552 16.3991C19.8484 15.6913 19.9993 14.9327 19.9993 14.1666C19.9993 13.4006 19.8484 12.642 19.5552 11.9342C19.2621 11.2264 18.8324 10.5833 18.2907 10.0416C17.749 9.49994 17.1059 9.07023 16.3981 8.77707C15.6903 8.4839 14.9317 8.33301 14.1657 8.33301C13.3996 8.33301 12.641 8.4839 11.9332 8.77707C11.2255 9.07023 10.5824 9.49994 10.0407 10.0416C8.94664 11.1357 8.33203 12.6195 8.33203 14.1666C8.33203 15.7138 8.94664 17.1976 10.0407 18.2916C11.1347 19.3857 12.6185 20.0003 14.1657 20.0003C15.7128 20.0003 17.1966 19.3857 18.2907 18.2916Z" stroke="#4F4F4F" stroke-width="1.5" stroke-linecap="round" stroke-linejoin="round"/>
</svg>
