<svg width="20" height="20" viewBox="0 0 20 20" fill="none" xmlns="http://www.w3.org/2000/svg">
<path d="M14.2997 8.39937C13.8997 8.39937 13.4997 8.31938 13.1397 8.13938C13.0397 8.09937 12.9397 8.03938 12.8597 7.97938L12.7397 7.89937L12.7597 7.75937C12.7997 7.55937 12.8197 7.33938 12.8197 7.13938C12.8197 6.25938 12.4397 5.43937 11.7797 4.87937L11.6797 4.77937L11.7197 4.63937C12.1197 3.57938 13.1597 2.85938 14.2997 2.85938C15.8197 2.85938 17.0597 4.09938 17.0597 5.61937C17.0597 6.67937 16.4397 7.65937 15.4797 8.11937C15.0997 8.31937 14.6997 8.39937 14.2997 8.39937ZM13.1797 7.71937C13.2197 7.73937 13.2597 7.75938 13.2997 7.77938C13.9197 8.07938 14.6797 8.07938 15.2997 7.77938C16.1197 7.39937 16.6597 6.55937 16.6597 5.63937C16.6597 4.33938 15.5997 3.27937 14.2997 3.27937C13.3597 3.27937 12.5197 3.83937 12.1397 4.67937C12.8197 5.31937 13.2197 6.19938 13.2197 7.13938C13.2197 7.35938 13.2197 7.53937 13.1797 7.71937Z" fill="black" stroke="black"/>
<path d="M14.5411 13.6983L14.5011 13.5383C14.1611 11.9583 12.8411 10.6583 11.1611 10.2183L10.6211 10.0783L11.1211 9.83828C11.8811 9.47828 12.4611 8.81828 12.7011 7.99828L12.7211 7.89828L12.8211 7.85828C12.9211 7.81828 13.0411 7.77828 13.1611 7.75828L13.2211 7.73828L13.2811 7.77828C13.9011 8.07828 14.6611 8.07828 15.2811 7.77828L15.3411 7.73828L15.4011 7.75828C17.2011 8.21828 18.4611 9.75828 18.4611 11.4983C18.4611 13.6783 16.4411 13.6983 14.6811 13.6983H14.5411ZM11.7211 9.95828C13.2811 10.5183 14.4811 11.7783 14.8611 13.2783C16.8811 13.2583 18.0811 13.1183 18.0811 11.4783C18.0811 9.95828 16.9811 8.59828 15.4011 8.13828C14.7011 8.43828 13.9011 8.43828 13.2011 8.13828C13.1611 8.15828 13.1011 8.15828 13.0611 8.17828C12.8211 8.93828 12.3411 9.55828 11.7211 9.95828Z" fill="black" stroke="black"/>
<path d="M5.70094 8.39891C5.30094 8.39891 4.90094 8.31891 4.54094 8.13891C3.58094 7.67891 2.96094 6.71891 2.96094 5.63891C2.96094 4.11891 4.20094 2.87891 5.72094 2.87891C6.80094 2.87891 7.80094 3.51891 8.24094 4.49891L8.30094 4.63891L8.16094 4.73891C7.40094 5.29891 6.94094 6.17891 6.94094 7.13891C6.94094 7.37891 6.98094 7.63891 7.04094 7.85891L7.08094 7.99891L6.96094 8.07891C6.94094 8.07891 6.92094 8.09891 6.92094 8.09891C6.50094 8.31891 6.10094 8.39891 5.70094 8.39891ZM5.70094 3.29891C4.40094 3.29891 3.34094 4.35891 3.34094 5.65891C3.34094 6.55891 3.88094 7.39891 4.70094 7.79891C5.28094 8.07891 5.98094 8.09891 6.58094 7.83891C6.54094 7.61891 6.52094 7.39891 6.52094 7.17891C6.52094 6.15891 6.98094 5.19891 7.78094 4.55891C7.38094 3.77891 6.58094 3.29891 5.70094 3.29891Z" fill="black" stroke="black"/>
<path d="M5.21953 13.6983H5.05953C3.47953 13.6983 1.51953 13.6783 1.51953 11.4983C1.51953 9.75828 2.77953 8.23828 4.57953 7.75828L4.63953 7.73828L4.69953 7.77828C5.31953 8.07828 6.07953 8.07828 6.69953 7.77828L6.75953 7.73828L6.97953 7.79828L6.99953 7.89828C7.21953 8.73828 7.81953 9.43828 8.59953 9.81828L9.09953 10.0583L8.55953 10.1983C6.87953 10.6383 5.55953 11.9383 5.21953 13.5183V13.6983ZM4.59953 8.17828C3.01953 8.61828 1.91953 9.97828 1.91953 11.5183C1.91953 12.9783 2.87953 13.2783 4.89953 13.3183C5.27953 11.8183 6.47953 10.5583 8.03953 9.99828C7.41953 9.57828 6.93953 8.97828 6.69953 8.25828C6.01953 8.47828 5.25953 8.45828 4.59953 8.17828Z" fill="black" stroke="black"/>
<path d="M9.87906 10.5203C9.73906 10.5203 9.57906 10.5203 9.43906 10.5003C9.09906 10.4603 8.77906 10.3603 8.45906 10.2203C7.55906 9.80031 6.89906 9.00031 6.63906 8.04031V8.00031C6.57906 7.72031 6.53906 7.46031 6.53906 7.18031C6.53906 6.10031 7.05906 5.08031 7.93906 4.46031C8.51906 4.04031 9.19906 3.82031 9.89906 3.82031C10.6991 3.82031 11.4591 4.10031 12.0591 4.60031C12.8191 5.24031 13.2591 6.18031 13.2591 7.16031C13.2591 7.40031 13.2391 7.62031 13.1791 7.86031C13.1591 7.94031 13.1391 8.04031 13.1191 8.12031C12.8591 9.04031 12.1991 9.80031 11.3191 10.2003C11.0991 10.3003 10.8591 10.3803 10.6191 10.4403C10.3591 10.5003 10.1191 10.5203 9.87906 10.5203ZM6.99906 7.88031C6.99906 7.90031 6.99906 7.92031 7.01906 7.92031C7.23906 8.76031 7.81906 9.46031 8.61906 9.82031C8.89906 9.94031 9.19906 10.0403 9.47906 10.0803C9.83906 10.1203 10.1591 10.1203 10.4991 10.0403C10.7191 10.0003 10.9191 9.92031 11.1191 9.84031C11.8791 9.48031 12.4591 8.82031 12.6991 8.00031C12.7191 7.92031 12.7391 7.84031 12.7591 7.78031C12.7991 7.58031 12.8191 7.38031 12.8191 7.16031C12.8191 6.28031 12.4391 5.46031 11.7791 4.90031C11.2391 4.46031 10.5791 4.20031 9.87906 4.20031C9.25906 4.20031 8.65906 4.40031 8.15906 4.76031C7.39906 5.32031 6.93906 6.20031 6.93906 7.16031C6.91906 7.40031 6.95906 7.66031 6.99906 7.88031Z" fill="black" stroke="black"/>
<path d="M10.1598 17.0603C10.1198 17.0603 10.0598 17.0603 10.0198 17.0603H9.73977C8.35977 17.0603 7.17977 17.0603 6.27977 16.7403C5.25977 16.3803 4.75977 15.6003 4.75977 14.4003C4.75977 14.0803 4.79977 13.7603 4.85977 13.4603C5.23977 11.7403 6.65977 10.3203 8.49977 9.84031L8.55977 9.82031L8.61977 9.86031C8.89977 9.98031 9.19977 10.0803 9.47977 10.1203C9.83977 10.1603 10.1598 10.1603 10.4998 10.0803C10.7198 10.0403 10.9198 9.96031 11.1198 9.88031L11.1798 9.84031L11.2598 9.86031C13.0998 10.3403 14.5198 11.7603 14.8998 13.4803C14.9598 13.7803 14.9998 14.1003 14.9998 14.4203C14.9998 15.6403 14.4998 16.4003 13.4798 16.7603C12.5998 17.0603 11.4798 17.0603 10.1598 17.0603ZM9.87977 16.6603H10.0198C11.2998 16.6603 12.4998 16.6603 13.3398 16.3603C14.2198 16.0403 14.5998 15.4403 14.5998 14.4003C14.5998 14.1203 14.5598 13.8203 14.4998 13.5403C14.1598 11.9803 12.8798 10.6803 11.2198 10.2403C11.0198 10.3403 10.7998 10.4003 10.5798 10.4403C10.1998 10.5203 9.81977 10.5403 9.41976 10.4803C9.09977 10.4403 8.79977 10.3603 8.49977 10.2203C6.83977 10.6803 5.55977 11.9603 5.21977 13.5203C5.15977 13.8003 5.11977 14.1003 5.11977 14.3803C5.11977 15.4203 5.49977 16.0403 6.37977 16.3403C7.21977 16.6403 8.41977 16.6403 9.69977 16.6403H9.87977V16.6603Z" fill="black" stroke="black"/>
</svg>
