<svg width="30" height="30" viewBox="0 0 30 30" fill="none" xmlns="http://www.w3.org/2000/svg">
<circle cx="15" cy="15" r="15" fill="#EEEEEE"/>
<path fill-rule="evenodd" clip-rule="evenodd" d="M10.0026 8.95898C9.4276 8.95898 8.96094 9.42565 8.96094 10.0007V12.5007C8.96094 12.6664 8.89509 12.8254 8.77788 12.9426C8.66067 13.0598 8.5017 13.1257 8.33594 13.1257C8.17018 13.1257 8.01121 13.0598 7.894 12.9426C7.77679 12.8254 7.71094 12.6664 7.71094 12.5007V10.0007C7.71094 9.39286 7.95238 8.80997 8.38215 8.3802C8.81192 7.95043 9.39482 7.70898 10.0026 7.70898H12.5026C12.6684 7.70898 12.8273 7.77483 12.9445 7.89204C13.0618 8.00925 13.1276 8.16822 13.1276 8.33398C13.1276 8.49974 13.0618 8.65872 12.9445 8.77593C12.8273 8.89314 12.6684 8.95898 12.5026 8.95898H10.0026ZM16.8776 8.33398C16.8776 8.16822 16.9435 8.00925 17.0607 7.89204C17.1779 7.77483 17.3368 7.70898 17.5026 7.70898H20.0026C20.6104 7.70898 21.1933 7.95043 21.6231 8.3802C22.0528 8.80997 22.2943 9.39286 22.2943 10.0007V12.5007C22.2943 12.6664 22.2284 12.8254 22.1112 12.9426C21.994 13.0598 21.835 13.1257 21.6693 13.1257C21.5035 13.1257 21.3445 13.0598 21.2273 12.9426C21.1101 12.8254 21.0443 12.6664 21.0443 12.5007V10.0007C21.0443 9.42565 20.5776 8.95898 20.0026 8.95898H17.5026C17.3368 8.95898 17.1779 8.89314 17.0607 8.77593C16.9435 8.65872 16.8776 8.49974 16.8776 8.33398ZM8.33594 16.8757C8.5017 16.8757 8.66067 16.9415 8.77788 17.0587C8.89509 17.1759 8.96094 17.3349 8.96094 17.5007V20.0007C8.96094 20.5757 9.4276 21.0423 10.0026 21.0423H12.5026C12.6684 21.0423 12.8273 21.1082 12.9445 21.2254C13.0618 21.3426 13.1276 21.5016 13.1276 21.6673C13.1276 21.8331 13.0618 21.992 12.9445 22.1093C12.8273 22.2265 12.6684 22.2923 12.5026 22.2923H10.0026C9.39482 22.2923 8.81192 22.0509 8.38215 21.6211C7.95238 21.1913 7.71094 20.6084 7.71094 20.0007V17.5007C7.71094 17.3349 7.77679 17.1759 7.894 17.0587C8.01121 16.9415 8.17018 16.8757 8.33594 16.8757ZM21.6693 16.8757C21.835 16.8757 21.994 16.9415 22.1112 17.0587C22.2284 17.1759 22.2943 17.3349 22.2943 17.5007V20.0007C22.2943 20.6084 22.0528 21.1913 21.6231 21.6211C21.1933 22.0509 20.6104 22.2923 20.0026 22.2923H17.5026C17.3368 22.2923 17.1779 22.2265 17.0607 22.1093C16.9435 21.992 16.8776 21.8331 16.8776 21.6673C16.8776 21.5016 16.9435 21.3426 17.0607 21.2254C17.1779 21.1082 17.3368 21.0423 17.5026 21.0423H20.0026C20.5776 21.0423 21.0443 20.5757 21.0443 20.0007V17.5007C21.0443 17.3349 21.1101 17.1759 21.2273 17.0587C21.3445 16.9415 21.5035 16.8757 21.6693 16.8757Z" fill="#4F4F4F"/>
</svg>
