<svg width="20" height="20" viewBox="0 0 20 20" fill="none" xmlns="http://www.w3.org/2000/svg">
<path d="M9.16536 8.33366C11.0063 8.33366 12.4987 6.84127 12.4987 5.00033C12.4987 3.15938 11.0063 1.66699 9.16536 1.66699C7.32442 1.66699 5.83203 3.15938 5.83203 5.00033C5.83203 6.84127 7.32442 8.33366 9.16536 8.33366Z" stroke="#434343" stroke-width="1.5"/>
<path d="M14.168 8.58398L15.2788 9.58398L17.5013 7.08398" stroke="#434343" stroke-width="1.5" stroke-linecap="round" stroke-linejoin="round"/>
<path d="M15.8317 15.0007C15.8328 14.864 15.8333 14.7251 15.8333 14.584C15.8333 12.5132 12.8483 10.834 9.16667 10.834C5.485 10.834 2.5 12.5132 2.5 14.584C2.5 16.6548 2.5 18.334 9.16667 18.334C11.0258 18.334 12.3667 18.2032 13.3333 17.9698" stroke="#434343" stroke-width="1.5" stroke-linecap="round"/>
</svg>
