<svg width="48" height="48" viewBox="0 0 48 48" fill="none" xmlns="http://www.w3.org/2000/svg">
<g filter="url(#filter0_d_47_384)">
<circle cx="16" cy="16" r="16" transform="matrix(-1 0 0 1 40 4)" fill="black"/>
<path fill-rule="evenodd" clip-rule="evenodd" d="M19.812 20.0007C19.812 20.1775 19.8822 20.347 20.0073 20.4721C20.1323 20.5971 20.3019 20.6673 20.4787 20.6673H28.812C28.9888 20.6673 29.1584 20.5971 29.2834 20.4721C29.4084 20.347 29.4787 20.1775 29.4787 20.0007C29.4787 19.8238 29.4084 19.6543 29.2834 19.5292C29.1584 19.4042 28.9888 19.334 28.812 19.334H20.4787C20.3019 19.334 20.1323 19.4042 20.0073 19.5292C19.8822 19.6543 19.812 19.8238 19.812 20.0007Z" fill="white"/>
<path fill-rule="evenodd" clip-rule="evenodd" d="M18.812 19.9998C18.812 20.1766 18.8823 20.3461 19.0073 20.4711L22.0073 23.4711C22.1324 23.5962 22.3019 23.6665 22.4788 23.6666C22.6556 23.6667 22.8253 23.5965 22.9503 23.4715C23.0754 23.3465 23.1458 23.1769 23.1458 23C23.1459 22.8232 23.0757 22.6536 22.9507 22.5285L20.4213 19.9998L22.95 17.4711C23.075 17.346 23.1452 17.1764 23.1451 16.9996C23.1451 16.8227 23.0748 16.6531 22.9497 16.5281C22.8246 16.4031 22.655 16.3329 22.4781 16.333C22.3013 16.3331 22.1317 16.4034 22.0067 16.5285L19.0067 19.5285C18.8819 19.6536 18.8119 19.8231 18.812 19.9998Z" fill="white"/>
</g>
<defs>
<filter id="filter0_d_47_384" x="0" y="0" width="48" height="48" filterUnits="userSpaceOnUse" color-interpolation-filters="sRGB">
<feFlood flood-opacity="0" result="BackgroundImageFix"/>
<feColorMatrix in="SourceAlpha" type="matrix" values="0 0 0 0 0 0 0 0 0 0 0 0 0 0 0 0 0 0 127 0" result="hardAlpha"/>
<feOffset dy="4"/>
<feGaussianBlur stdDeviation="4"/>
<feComposite in2="hardAlpha" operator="out"/>
<feColorMatrix type="matrix" values="0 0 0 0 0 0 0 0 0 0 0 0 0 0 0 0 0 0 0.08 0"/>
<feBlend mode="normal" in2="BackgroundImageFix" result="effect1_dropShadow_47_384"/>
<feBlend mode="normal" in="SourceGraphic" in2="effect1_dropShadow_47_384" result="shape"/>
</filter>
</defs>
</svg>
