<svg width="20" height="20" viewBox="0 0 20 20" fill="none" xmlns="http://www.w3.org/2000/svg">
<path d="M2.5 7.08301C2.5 5.91801 2.5 5.33551 2.69 4.87634C2.81564 4.57293 2.99982 4.29725 3.23203 4.06504C3.46424 3.83283 3.73992 3.64865 4.04333 3.52301C4.5025 3.33301 5.085 3.33301 6.25 3.33301H13.75C14.915 3.33301 15.4975 3.33301 15.9567 3.52301C16.2601 3.64865 16.5358 3.83283 16.768 4.06504C17.0002 4.29725 17.1844 4.57293 17.31 4.87634C17.5 5.33551 17.5 5.91801 17.5 7.08301V7.70801C17.5 7.87377 17.4342 8.03274 17.3169 8.14995C17.1997 8.26716 17.0408 8.33301 16.875 8.33301H16.6667C16.2246 8.33301 15.8007 8.5086 15.4882 8.82116C15.1756 9.13372 15 9.55765 15 9.99967C15 10.4417 15.1756 10.8656 15.4882 11.1782C15.8007 11.4907 16.2246 11.6663 16.6667 11.6663H16.875C17.0408 11.6663 17.1997 11.7322 17.3169 11.8494C17.4342 11.9666 17.5 12.1256 17.5 12.2913V12.9163C17.5 14.0813 17.5 14.6638 17.31 15.123C17.1844 15.4264 17.0002 15.7021 16.768 15.9343C16.5358 16.1665 16.2601 16.3507 15.9567 16.4763C15.4975 16.6663 14.915 16.6663 13.75 16.6663H6.25C5.085 16.6663 4.5025 16.6663 4.04333 16.4763C3.73992 16.3507 3.46424 16.1665 3.23203 15.9343C2.99982 15.7021 2.81564 15.4264 2.69 15.123C2.5 14.6638 2.5 14.0813 2.5 12.9163V12.2913C2.5 12.1256 2.56585 11.9666 2.68306 11.8494C2.80027 11.7322 2.95924 11.6663 3.125 11.6663H3.33333C3.77536 11.6663 4.19928 11.4907 4.51184 11.1782C4.82441 10.8656 5 10.4417 5 9.99967C5 9.55765 4.82441 9.13372 4.51184 8.82116C4.19928 8.5086 3.77536 8.33301 3.33333 8.33301H3.125C2.95924 8.33301 2.80027 8.26716 2.68306 8.14995C2.56585 8.03274 2.5 7.87377 2.5 7.70801V7.08301Z" stroke="black" stroke-width="1.5"/>
</svg>
