<svg width="14" height="14" viewBox="0 0 14 14" fill="none" xmlns="http://www.w3.org/2000/svg">
<g clip-path="url(#clip0_232_2885)">
<path d="M7.61833 12.0849C7.45427 12.2488 7.23187 12.3408 7 12.3408C6.76812 12.3408 6.54573 12.2488 6.38167 12.0849L3.08058 8.78559C2.91644 8.62144 2.82422 8.39881 2.82422 8.16667C2.82422 7.93454 2.91644 7.7119 3.08058 7.54776C3.24473 7.38361 3.46736 7.29139 3.6995 7.29139C3.93164 7.29139 4.15427 7.38361 4.31842 7.54776L6.125 9.35376V2.62501C6.125 2.39294 6.21719 2.17038 6.38128 2.00629C6.54537 1.8422 6.76793 1.75001 7 1.75001C7.23206 1.75001 7.45462 1.8422 7.61872 2.00629C7.78281 2.17038 7.875 2.39294 7.875 2.62501V9.35376L9.681 7.54776C9.76228 7.46648 9.85877 7.40201 9.96496 7.35802C10.0712 7.31403 10.185 7.29139 10.2999 7.29139C10.4149 7.29139 10.5287 7.31403 10.6349 7.35802C10.7411 7.40201 10.8376 7.46648 10.9188 7.54776C11.0001 7.62903 11.0646 7.72552 11.1086 7.83172C11.1526 7.93791 11.1752 8.05173 11.1752 8.16667C11.1752 8.28162 11.1526 8.39544 11.1086 8.50163C11.0646 8.60782 11.0001 8.70431 10.9188 8.78559L7.61833 12.0849Z" fill="#FF0000"/>
</g>
<defs>
<clipPath id="clip0_232_2885">
<rect width="14" height="14" fill="white" transform="matrix(1 0 0 -1 0 14)"/>
</clipPath>
</defs>
</svg>
