<svg width="14" height="14" viewBox="0 0 14 14" fill="none" xmlns="http://www.w3.org/2000/svg">
<g clip-path="url(#clip0_232_2870)">
<path d="M7.61833 1.91508C7.45427 1.75122 7.23187 1.65918 7 1.65918C6.76812 1.65918 6.54573 1.75122 6.38167 1.91508L3.08058 5.21441C2.91644 5.37856 2.82422 5.60119 2.82422 5.83333C2.82422 6.06546 2.91644 6.2881 3.08058 6.45224C3.24473 6.61639 3.46736 6.70861 3.6995 6.70861C3.93164 6.70861 4.15427 6.61639 4.31842 6.45224L6.125 4.64624V11.375C6.125 11.6071 6.21719 11.8296 6.38128 11.9937C6.54537 12.1578 6.76793 12.25 7 12.25C7.23206 12.25 7.45462 12.1578 7.61872 11.9937C7.78281 11.8296 7.875 11.6071 7.875 11.375V4.64624L9.681 6.45224C9.76228 6.53352 9.85877 6.59799 9.96496 6.64198C10.0712 6.68597 10.185 6.70861 10.2999 6.70861C10.4149 6.70861 10.5287 6.68597 10.6349 6.64198C10.7411 6.59799 10.8376 6.53352 10.9188 6.45224C11.0001 6.37097 11.0646 6.27448 11.1086 6.16828C11.1526 6.06209 11.1752 5.94827 11.1752 5.83333C11.1752 5.71838 11.1526 5.60456 11.1086 5.49837C11.0646 5.39218 11.0001 5.29569 10.9188 5.21441L7.61833 1.91508Z" fill="#0F9935"/>
</g>
<defs>
<clipPath id="clip0_232_2870">
<rect width="14" height="14" fill="white"/>
</clipPath>
</defs>
</svg>
