<svg width="14" height="14" viewBox="0 0 14 14" fill="none" xmlns="http://www.w3.org/2000/svg">
<g clip-path="url(#clip0_232_2979)">
<path fill-rule="evenodd" clip-rule="evenodd" d="M6.9987 1.74967C6.30926 1.74967 5.62657 1.88547 4.98961 2.14931C4.35265 2.41314 3.77389 2.79986 3.28639 3.28736C2.79888 3.77487 2.41217 4.35363 2.14833 4.99059C1.88449 5.62755 1.7487 6.31023 1.7487 6.99967C1.7487 7.68911 1.88449 8.3718 2.14833 9.00876C2.41217 9.64572 2.79888 10.2245 3.28639 10.712C3.77389 11.1995 4.35265 11.5862 4.98961 11.85C5.62657 12.1139 6.30926 12.2497 6.9987 12.2497C8.39108 12.2497 9.72644 11.6966 10.711 10.712C11.6956 9.72742 12.2487 8.39206 12.2487 6.99967C12.2487 5.60729 11.6956 4.27193 10.711 3.28736C9.72644 2.3028 8.39108 1.74967 6.9987 1.74967ZM0.582031 6.99967C0.582031 3.45592 3.45495 0.583008 6.9987 0.583008C10.5424 0.583008 13.4154 3.45592 13.4154 6.99967C13.4154 10.5434 10.5424 13.4163 6.9987 13.4163C3.45495 13.4163 0.582031 10.5434 0.582031 6.99967Z" fill="#0F9935"/>
<path fill-rule="evenodd" clip-rule="evenodd" d="M10.2694 5.24964L5.76255 9.75647L3.49805 7.05389L4.37946 6.28972L5.8238 8.04556L9.44455 4.4248L10.2694 5.24964Z" fill="#0F9935"/>
</g>
<defs>
<clipPath id="clip0_232_2979">
<rect width="14" height="14" fill="white"/>
</clipPath>
</defs>
</svg>
