<svg width="32" height="32" viewBox="0 0 32 32" fill="none" xmlns="http://www.w3.org/2000/svg">
<circle cx="16" cy="16" r="16" fill="white"/>
<path d="M15.0005 21.3327C15.0005 21.5979 15.1059 21.8523 15.2934 22.0398C15.4809 22.2273 15.7353 22.3327 16.0005 22.3327C16.2657 22.3327 16.5201 22.2273 16.7076 22.0398C16.8952 21.8523 17.0005 21.5979 17.0005 21.3327V16.9993H21.3338C21.5991 16.9993 21.8534 16.894 22.0409 16.7065C22.2285 16.5189 22.3338 16.2646 22.3338 15.9993C22.3338 15.7341 22.2285 15.4798 22.0409 15.2922C21.8534 15.1047 21.5991 14.9993 21.3338 14.9993H17.0005V10.666C17.0005 10.4008 16.8952 10.1464 16.7076 9.95891C16.5201 9.77137 16.2657 9.66602 16.0005 9.66602C15.7353 9.66602 15.4809 9.77137 15.2934 9.95891C15.1059 10.1464 15.0005 10.4008 15.0005 10.666V14.9993H10.6672C10.402 14.9993 10.1476 15.1047 9.96007 15.2922C9.77253 15.4798 9.66718 15.7341 9.66718 15.9993C9.66718 16.2646 9.77253 16.5189 9.96007 16.7065C10.1476 16.894 10.402 16.9993 10.6672 16.9993H15.0005V21.3327Z" fill="black"/>
</svg>
