<svg width="79" height="85" viewBox="0 0 79 85" fill="none" xmlns="http://www.w3.org/2000/svg">
<g filter="url(#filter0_d_1521_2235)">
<rect x="12.094" y="9.07031" width="54.0356" height="60.79" rx="9.07042" fill="#68C1FF"/>
<path fill-rule="evenodd" clip-rule="evenodd" d="M39.3575 29.2266H39.2526C38.3466 29.2266 37.5918 29.2266 36.9931 29.3072C36.3602 29.3918 35.7888 29.5793 35.3302 30.0379C34.8706 30.4974 34.6832 31.0689 34.5985 31.7008C34.5411 32.1311 34.5239 33.1581 34.5199 34.0389C32.4821 34.1065 31.2576 34.3443 30.408 35.1949C29.2268 36.3751 29.2268 38.2758 29.2268 42.0763C29.2268 45.8768 29.2268 47.7776 30.408 48.9578C31.5891 50.1379 33.4889 50.1389 37.2894 50.1389H41.3207C45.1212 50.1389 47.022 50.1389 48.2021 48.9578C49.3823 47.7766 49.3833 45.8768 49.3833 42.0763C49.3833 38.2758 49.3833 36.3751 48.2021 35.1949C47.3525 34.3443 46.128 34.1065 44.0902 34.0399C44.0862 33.1581 44.07 32.1311 44.0116 31.7018C43.9269 31.0689 43.7395 30.4974 43.2799 30.0389C42.8214 29.5793 42.2499 29.3918 41.617 29.3072C41.0184 29.2266 40.2625 29.2266 39.3575 29.2266ZM42.5785 34.0157C42.5734 33.1621 42.5593 32.244 42.514 31.9023C42.4505 31.4377 42.3426 31.2382 42.2116 31.1072C42.0806 30.9761 41.8811 30.8683 41.4154 30.8048C40.9297 30.7403 40.2766 30.7383 39.3051 30.7383C38.3335 30.7383 37.6804 30.7403 37.1937 30.8058C36.7291 30.8683 36.5295 30.9761 36.3985 31.1082C36.2675 31.2402 36.1596 31.4377 36.0961 31.9023C36.0508 32.245 36.0357 33.1621 36.0316 34.0157C36.4267 34.0137 36.846 34.0131 37.2894 34.0137H41.3207C41.7655 34.0137 42.1847 34.0144 42.5785 34.0157ZM39.3051 37.2892C39.5055 37.2892 39.6978 37.3688 39.8395 37.5105C39.9813 37.6523 40.0609 37.8446 40.0609 38.045V38.0551C41.1584 38.3313 42.0766 39.197 42.0766 40.3963C42.0766 40.5968 41.9969 40.789 41.8552 40.9308C41.7134 41.0725 41.5212 41.1522 41.3207 41.1522C41.1202 41.1522 40.928 41.0725 40.7862 40.9308C40.6445 40.789 40.5648 40.5968 40.5648 40.3963C40.5648 40.0093 40.1355 39.4731 39.3051 39.4731C38.4746 39.4731 38.0453 40.0093 38.0453 40.3963C38.0453 40.7833 38.4746 41.3205 39.3051 41.3205C40.7009 41.3205 42.0766 42.288 42.0766 43.7564C42.0766 44.9557 41.1584 45.8204 40.0609 46.0975V46.1076C40.0609 46.3081 39.9813 46.5004 39.8395 46.6421C39.6978 46.7839 39.5055 46.8635 39.3051 46.8635C39.1046 46.8635 38.9123 46.7839 38.7706 46.6421C38.6288 46.5004 38.5492 46.3081 38.5492 46.1076V46.0975C37.4517 45.8214 36.5335 44.9557 36.5335 43.7564C36.5335 43.5559 36.6132 43.3636 36.7549 43.2219C36.8967 43.0801 37.0889 43.0005 37.2894 43.0005C37.4899 43.0005 37.6821 43.0801 37.8239 43.2219C37.9656 43.3636 38.0453 43.5559 38.0453 43.7564C38.0453 44.1434 38.4746 44.6795 39.3051 44.6795C40.1355 44.6795 40.5648 44.1434 40.5648 43.7564C40.5648 43.3694 40.1355 42.8322 39.3051 42.8322C37.9092 42.8322 36.5335 41.8647 36.5335 40.3963C36.5335 39.197 37.4517 38.3313 38.5492 38.0551V38.045C38.5492 37.8446 38.6288 37.6523 38.7706 37.5105C38.9123 37.3688 39.1046 37.2892 39.3051 37.2892Z" fill="white"/>
</g>
<defs>
<filter id="filter0_d_1521_2235" x="9.72748e-05" y="-0.000110149" width="78.2234" height="84.9769" filterUnits="userSpaceOnUse" color-interpolation-filters="sRGB">
<feFlood flood-opacity="0" result="BackgroundImageFix"/>
<feColorMatrix in="SourceAlpha" type="matrix" values="0 0 0 0 0 0 0 0 0 0 0 0 0 0 0 0 0 0 127 0" result="hardAlpha"/>
<feOffset dy="3.02347"/>
<feGaussianBlur stdDeviation="6.04695"/>
<feComposite in2="hardAlpha" operator="out"/>
<feColorMatrix type="matrix" values="0 0 0 0 0 0 0 0 0 0 0 0 0 0 0 0 0 0 0.2 0"/>
<feBlend mode="normal" in2="BackgroundImageFix" result="effect1_dropShadow_1521_2235"/>
<feBlend mode="normal" in="SourceGraphic" in2="effect1_dropShadow_1521_2235" result="shape"/>
</filter>
</defs>
</svg>
