<svg width="56" height="63" viewBox="0 0 56 63" fill="none" xmlns="http://www.w3.org/2000/svg">
<rect x="0.378424" y="0.377448" width="54.7915" height="61.5458" rx="9.46029" fill="#EEEEEE" stroke="#D9D9D9" stroke-width="0.756824"/>
<path fill-rule="evenodd" clip-rule="evenodd" d="M27.8275 20.7695H27.7234C26.8239 20.7695 26.0744 20.7695 25.48 20.8496C24.8516 20.9336 24.2842 21.1198 23.8289 21.575C23.3726 22.0313 23.1865 22.5987 23.1025 23.2261C23.0454 23.6534 23.0284 24.673 23.0244 25.5476C21.0011 25.6146 19.7853 25.8508 18.9418 26.6953C17.769 27.8671 17.769 29.7543 17.769 33.5277C17.769 37.3011 17.769 39.1883 18.9418 40.3601C20.1145 41.5319 22.0008 41.5329 25.7742 41.5329H29.7767C33.5502 41.5329 35.4374 41.5329 36.6091 40.3601C37.7809 39.1873 37.7819 37.3011 37.7819 33.5277C37.7819 29.7543 37.7819 27.8671 36.6091 26.6953C35.7656 25.8508 34.5498 25.6146 32.5265 25.5486C32.5225 24.673 32.5065 23.6534 32.4485 23.2271C32.3644 22.5987 32.1783 22.0313 31.722 21.576C31.2667 21.1198 30.6993 20.9336 30.0709 20.8496C29.4766 20.7695 28.7261 20.7695 27.8275 20.7695ZM31.0255 25.5246C31.0205 24.677 31.0065 23.7655 30.9615 23.4262C30.8985 22.9649 30.7914 22.7668 30.6613 22.6367C30.5312 22.5066 30.3331 22.3996 29.8708 22.3365C29.3885 22.2725 28.7401 22.2705 27.7755 22.2705C26.8108 22.2705 26.1624 22.2725 25.6791 22.3375C25.2178 22.3996 25.0197 22.5066 24.8896 22.6377C24.7595 22.7688 24.6525 22.9649 24.5894 23.4262C24.5444 23.7665 24.5294 24.677 24.5254 25.5246C24.9176 25.5226 25.3339 25.5219 25.7742 25.5226H29.7767C30.2184 25.5226 30.6346 25.5232 31.0255 25.5246ZM27.7755 28.7747C27.9745 28.7747 28.1654 28.8537 28.3061 28.9945C28.4469 29.1352 28.5259 29.3261 28.5259 29.5251V29.5352C29.6156 29.8093 30.5272 30.6689 30.5272 31.8596C30.5272 32.0587 30.4482 32.2496 30.3074 32.3903C30.1667 32.5311 29.9758 32.6101 29.7767 32.6101C29.5777 32.6101 29.3868 32.5311 29.2461 32.3903C29.1053 32.2496 29.0263 32.0587 29.0263 31.8596C29.0263 31.4754 28.6 30.9431 27.7755 30.9431C26.9509 30.9431 26.5247 31.4754 26.5247 31.8596C26.5247 32.2439 26.9509 32.7772 27.7755 32.7772C29.1614 32.7772 30.5272 33.7379 30.5272 35.1958C30.5272 36.3865 29.6156 37.2451 28.5259 37.5203V37.5303C28.5259 37.7293 28.4469 37.9202 28.3061 38.061C28.1654 38.2017 27.9745 38.2808 27.7755 38.2808C27.5764 38.2808 27.3855 38.2017 27.2448 38.061C27.1041 37.9202 27.025 37.7293 27.025 37.5303V37.5203C25.9353 37.2461 25.0237 36.3865 25.0237 35.1958C25.0237 34.9967 25.1028 34.8059 25.2435 34.6651C25.3843 34.5244 25.5751 34.4453 25.7742 34.4453C25.9732 34.4453 26.1641 34.5244 26.3048 34.6651C26.4456 34.8059 26.5247 34.9967 26.5247 35.1958C26.5247 35.58 26.9509 36.1124 27.7755 36.1124C28.6 36.1124 29.0263 35.58 29.0263 35.1958C29.0263 34.8115 28.6 34.2782 27.7755 34.2782C26.3896 34.2782 25.0237 33.3176 25.0237 31.8596C25.0237 30.6689 25.9353 29.8093 27.025 29.5352V29.5251C27.025 29.3261 27.1041 29.1352 27.2448 28.9945C27.3855 28.8537 27.5764 28.7747 27.7755 28.7747Z" fill="#4F4F4F"/>
</svg>
