<svg width="20" height="20" viewBox="0 0 20 20" fill="none" xmlns="http://www.w3.org/2000/svg">
<path d="M4.5 3.5H15.3333C15.9964 3.5 16.6323 3.76339 17.1011 4.23223C17.5699 4.70107 17.8333 5.33696 17.8333 6V13.5C17.8333 14.163 17.5699 14.7989 17.1011 15.2678C16.6323 15.7366 15.9964 16 15.3333 16H4.5C3.83696 16 3.20107 15.7366 2.73223 15.2678C2.26339 14.7989 2 14.163 2 13.5V6C2 5.33696 2.26339 4.70107 2.73223 4.23223C3.20107 3.76339 3.83696 3.5 4.5 3.5ZM4.5 4.33333C4.08333 4.33333 3.71667 4.475 3.43333 4.725L9.91667 8.91667L16.4 4.725C16.1167 4.475 15.75 4.33333 15.3333 4.33333H4.5ZM9.91667 9.925L2.94167 5.4C2.875 5.58333 2.83333 5.79167 2.83333 6V13.5C2.83333 13.942 3.00893 14.3659 3.32149 14.6785C3.63405 14.9911 4.05797 15.1667 4.5 15.1667H15.3333C15.7754 15.1667 16.1993 14.9911 16.5118 14.6785C16.8244 14.3659 17 13.942 17 13.5V6C17 5.79167 16.9583 5.58333 16.8917 5.4L9.91667 9.925Z" fill="#181818" stroke="#181818" stroke-width="0.5"/>
</svg>
