<svg width="24" height="24" viewBox="0 0 24 24" fill="none" xmlns="http://www.w3.org/2000/svg">
<circle cx="12" cy="12" r="12" fill="black"/>
<path d="M11.3332 10.6654C12.8059 10.6654 13.9998 9.47146 13.9998 7.9987C13.9998 6.52594 12.8059 5.33203 11.3332 5.33203C9.86041 5.33203 8.6665 6.52594 8.6665 7.9987C8.6665 9.47146 9.86041 10.6654 11.3332 10.6654Z" stroke="white" stroke-width="1.5"/>
<path d="M15.333 10.8641L16.2217 11.6641L17.9997 9.66406" stroke="white" stroke-width="1.5" stroke-linecap="round" stroke-linejoin="round"/>
<path d="M16.6653 15.9974C16.6662 15.8881 16.6667 15.777 16.6667 15.6641C16.6667 14.0074 14.2787 12.6641 11.3333 12.6641C8.388 12.6641 6 14.0074 6 15.6641C6 17.3207 6 18.6641 11.3333 18.6641C12.8207 18.6641 13.8933 18.5594 14.6667 18.3727" stroke="white" stroke-width="1.5" stroke-linecap="round"/>
</svg>
