<svg width="56" height="63" viewBox="0 0 56 63" fill="none" xmlns="http://www.w3.org/2000/svg">
<rect x="0.378429" y="0.377453" width="54.7915" height="61.5447" rx="9.46016" fill="#EEEEEE" stroke="#D9D9D9" stroke-width="0.756813"/>
<path d="M33.8372 42.5337H35.4983C36.3389 42.5337 37.0293 41.8832 37.1294 41.0627L38.7804 24.5721H33.7772V20.5195H31.8059V24.5721H26.8328L27.1329 26.9136C28.844 27.3839 30.4451 28.2345 31.4057 29.1751C32.8466 30.596 33.8372 32.0669 33.8372 34.4685V42.5337ZM16.7663 41.533V40.5324H31.8059V41.533C31.8059 42.0734 31.3557 42.5337 30.7753 42.5337H17.7669C17.2166 42.5337 16.7663 42.0734 16.7663 41.533ZM31.8059 34.5285C31.8059 26.5234 16.7663 26.5234 16.7663 34.5285H31.8059ZM16.7663 36.5298H31.7759V38.5311H16.7663V36.5298Z" fill="#4F4F4F"/>
</svg>
