<svg width="24" height="24" viewBox="0 0 24 24" fill="none" xmlns="http://www.w3.org/2000/svg">
<circle cx="12" cy="12" r="11.5" transform="rotate(180 12 12)" stroke="#181818"/>
<path fill-rule="evenodd" clip-rule="evenodd" d="M8.85907 12C8.85907 11.8674 8.91175 11.7402 9.00552 11.6464C9.09928 11.5527 9.22646 11.5 9.35907 11.5H15.6091C15.7417 11.5 15.8689 11.5527 15.9626 11.6464C16.0564 11.7402 16.1091 11.8674 16.1091 12C16.1091 12.1326 16.0564 12.2598 15.9626 12.3536C15.8689 12.4473 15.7417 12.5 15.6091 12.5H9.35907C9.22646 12.5 9.09928 12.4473 9.00552 12.3536C8.91175 12.2598 8.85907 12.1326 8.85907 12Z" fill="#181818"/>
<path fill-rule="evenodd" clip-rule="evenodd" d="M8.10907 11.9999C8.1091 11.8673 8.1618 11.7401 8.25557 11.6464L10.5056 9.3964C10.5993 9.30258 10.7265 9.24984 10.8591 9.2498C10.9918 9.24975 11.119 9.30239 11.2128 9.39615C11.3066 9.4899 11.3594 9.61709 11.3594 9.74972C11.3595 9.88236 11.3068 10.0096 11.2131 10.1034L9.31607 11.9999L11.2126 13.8964C11.3063 13.9902 11.359 14.1174 11.3589 14.2501C11.3589 14.3827 11.3061 14.5099 11.2123 14.6036C11.1185 14.6974 10.9913 14.75 10.8586 14.75C10.726 14.75 10.5988 14.6972 10.5051 14.6034L8.25507 12.3534C8.16148 12.2596 8.10897 12.1324 8.10907 11.9999Z" fill="#181818"/>
</svg>
