<svg width="24" height="24" viewBox="0 0 24 24" fill="none" xmlns="http://www.w3.org/2000/svg">
<circle cx="12" cy="12" r="12" fill="#2DA8E0"/>
<path d="M13.2006 5.60059C12.8823 5.60059 12.5771 5.72701 12.3521 5.95206C12.127 6.1771 12.0006 6.48233 12.0006 6.80059C12.0006 7.11885 12.127 7.42407 12.3521 7.64911C12.5771 7.87416 12.8823 8.00059 13.2006 8.00059C13.5188 8.00059 13.8241 7.87416 14.0491 7.64911C14.2742 7.42407 14.4006 7.11885 14.4006 6.80059C14.4006 6.48233 14.2742 6.1771 14.0491 5.95206C13.8241 5.72701 13.5188 5.60059 13.2006 5.60059ZM12.9126 9.41659C11.9606 9.49659 9.36059 11.5686 9.36059 11.5686C9.20059 11.6886 9.24859 11.6806 9.37659 11.9046C9.50459 12.1206 9.48859 12.1366 9.64059 12.0326C9.80059 11.9286 10.0646 11.7606 10.5046 11.4886C12.2006 10.4006 10.7766 12.9126 10.0486 17.1446C9.76059 19.2406 11.6486 18.1606 12.1366 17.8406C12.6166 17.5286 13.9046 16.6406 14.0326 16.5526C14.2086 16.4326 14.0806 16.3366 13.9446 16.1366C13.8486 16.0006 13.7526 16.0966 13.7526 16.0966C13.2326 16.4406 12.2806 17.1606 12.1526 16.7046C12.0006 16.2486 12.9766 13.1206 13.5126 10.9686C13.6006 10.4566 13.8406 9.33659 12.9126 9.41659Z" fill="#EAF6FC"/>
</svg>
