<svg width="56" height="63" viewBox="0 0 56 63" fill="none" xmlns="http://www.w3.org/2000/svg">
<rect x="0.378424" y="0.377448" width="54.7915" height="61.5458" rx="9.46029" fill="#EEEEEE" stroke="#D9D9D9" stroke-width="0.756824"/>
<path fill-rule="evenodd" clip-rule="evenodd" d="M19.9402 22.6923C18.7675 23.864 18.7675 25.7512 18.7675 29.5247V33.5272C18.7675 37.3007 18.7675 39.1879 19.9402 40.3596C21.113 41.5314 22.9992 41.5324 26.7726 41.5324H28.7739C32.5473 41.5324 34.4345 41.5324 35.6063 40.3596C36.778 39.1869 36.779 37.3007 36.779 33.5272V29.5247C36.779 25.7512 36.779 23.864 35.6063 22.6923C34.4335 21.5205 32.5473 21.5195 28.7739 21.5195H26.7726C22.9992 21.5195 21.112 21.5195 19.9402 22.6923ZM23.7707 28.7742C23.5717 28.7742 23.3808 28.8533 23.24 28.994C23.0993 29.1347 23.0202 29.3256 23.0202 29.5247C23.0202 29.7237 23.0993 29.9146 23.24 30.0553C23.3808 30.1961 23.5717 30.2751 23.7707 30.2751H31.7758C31.9749 30.2751 32.1658 30.1961 32.3065 30.0553C32.4472 29.9146 32.5263 29.7237 32.5263 29.5247C32.5263 29.3256 32.4472 29.1347 32.3065 28.994C32.1658 28.8533 31.9749 28.7742 31.7758 28.7742H23.7707ZM23.7707 32.7768C23.5717 32.7768 23.3808 32.8558 23.24 32.9966C23.0993 33.1373 23.0202 33.3282 23.0202 33.5272C23.0202 33.7263 23.0993 33.9172 23.24 34.0579C23.3808 34.1986 23.5717 34.2777 23.7707 34.2777H28.7739C28.9729 34.2777 29.1638 34.1986 29.3046 34.0579C29.4453 33.9172 29.5244 33.7263 29.5244 33.5272C29.5244 33.3282 29.4453 33.1373 29.3046 32.9966C29.1638 32.8558 28.9729 32.7768 28.7739 32.7768H23.7707Z" fill="#4F4F4F"/>
</svg>
