<svg width="79" height="85" viewBox="0 0 79 85" fill="none" xmlns="http://www.w3.org/2000/svg">
<g filter="url(#filter0_d_1521_2227)">
<rect x="12.0939" y="9.07031" width="54.0356" height="60.79" rx="9.07042" fill="#333333"/>
<path fill-rule="evenodd" clip-rule="evenodd" d="M31.4162 31.1636C30.235 32.3438 30.235 34.2445 30.235 38.045V42.0763C30.235 45.8768 30.235 47.7776 31.4162 48.9577C32.5973 50.1379 34.4971 50.1389 38.2976 50.1389H40.3132C44.1137 50.1389 46.0145 50.1389 47.1947 48.9577C48.3748 47.7766 48.3758 45.8768 48.3758 42.0763V38.045C48.3758 34.2445 48.3758 32.3438 47.1947 31.1636C46.0135 29.9834 44.1137 29.9824 40.3132 29.9824H38.2976C34.4971 29.9824 32.5963 29.9824 31.4162 31.1636ZM35.2741 37.2892C35.0736 37.2892 34.8814 37.3688 34.7396 37.5105C34.5979 37.6523 34.5182 37.8446 34.5182 38.045C34.5182 38.2455 34.5979 38.4377 34.7396 38.5795C34.8814 38.7213 35.0736 38.8009 35.2741 38.8009H43.3367C43.5372 38.8009 43.7294 38.7213 43.8712 38.5795C44.0129 38.4377 44.0926 38.2455 44.0926 38.045C44.0926 37.8446 44.0129 37.6523 43.8712 37.5105C43.7294 37.3688 43.5372 37.2892 43.3367 37.2892H35.2741ZM35.2741 41.3204C35.0736 41.3204 34.8814 41.4001 34.7396 41.5418C34.5979 41.6836 34.5182 41.8758 34.5182 42.0763C34.5182 42.2768 34.5979 42.469 34.7396 42.6108C34.8814 42.7526 35.0736 42.8322 35.2741 42.8322H40.3132C40.5137 42.8322 40.706 42.7526 40.8477 42.6108C40.9895 42.469 41.0691 42.2768 41.0691 42.0763C41.0691 41.8758 40.9895 41.6836 40.8477 41.5418C40.706 41.4001 40.5137 41.3204 40.3132 41.3204H35.2741Z" fill="white"/>
</g>
<defs>
<filter id="filter0_d_1521_2227" x="-2.47955e-05" y="-0.000110149" width="78.2233" height="84.9769" filterUnits="userSpaceOnUse" color-interpolation-filters="sRGB">
<feFlood flood-opacity="0" result="BackgroundImageFix"/>
<feColorMatrix in="SourceAlpha" type="matrix" values="0 0 0 0 0 0 0 0 0 0 0 0 0 0 0 0 0 0 127 0" result="hardAlpha"/>
<feOffset dy="3.02347"/>
<feGaussianBlur stdDeviation="6.04695"/>
<feComposite in2="hardAlpha" operator="out"/>
<feColorMatrix type="matrix" values="0 0 0 0 0 0 0 0 0 0 0 0 0 0 0 0 0 0 0.2 0"/>
<feBlend mode="normal" in2="BackgroundImageFix" result="effect1_dropShadow_1521_2227"/>
<feBlend mode="normal" in="SourceGraphic" in2="effect1_dropShadow_1521_2227" result="shape"/>
</filter>
</defs>
</svg>
