<svg width="56" height="63" viewBox="0 0 56 63" fill="none" xmlns="http://www.w3.org/2000/svg">
<rect x="0.378399" y="0.377453" width="54.7915" height="61.5447" rx="9.46016" fill="#EEEEEE" stroke="#D9D9D9" stroke-width="0.756813"/>
<path d="M21.7692 40.5331C23.4271 40.5331 24.7712 39.1891 24.7712 37.5312C24.7712 35.8733 23.4271 34.5293 21.7692 34.5293C20.1113 34.5293 18.7673 35.8733 18.7673 37.5312C18.7673 39.1891 20.1113 40.5331 21.7692 40.5331Z" fill="#4F4F4F" stroke="#4F4F4F" stroke-width="1.51364" stroke-linecap="round" stroke-linejoin="round"/>
<path d="M33.7758 39.5312C35.4337 39.5312 36.7777 38.1872 36.7777 36.5293C36.7777 34.8714 35.4337 33.5273 33.7758 33.5273C32.1178 33.5273 30.7738 34.8714 30.7738 36.5293C30.7738 38.1872 32.1178 39.5312 33.7758 39.5312Z" fill="#4F4F4F" stroke="#4F4F4F" stroke-width="1.51364" stroke-linecap="round" stroke-linejoin="round"/>
<path d="M36.78 22.5215L24.7723 25.5234V29.526L36.78 26.5241V22.5215Z" fill="#4F4F4F"/>
<path d="M24.7723 37.5311V29.526M24.7723 29.526V25.5234L36.78 22.5215V26.5241M24.7723 29.526L36.78 26.5241M36.78 36.5305V26.5241" stroke="#4F4F4F" stroke-width="1.51364" stroke-linecap="round" stroke-linejoin="round"/>
</svg>
