<svg width="30" height="30" viewBox="0 0 30 30" fill="none" xmlns="http://www.w3.org/2000/svg">
<circle cx="15" cy="15" r="15" fill="#EEEEEE"/>
<path d="M20.4141 18.7V10.625C20.4141 10.4592 20.3482 10.3003 20.231 10.1831C20.1138 10.0658 19.9548 10 19.7891 10C19.6233 10 19.4643 10.0658 19.3471 10.1831C19.2299 10.3003 19.1641 10.4592 19.1641 10.625V18.7L17.3141 16.85C17.2568 16.7886 17.1878 16.7393 17.1112 16.7052C17.0345 16.671 16.9518 16.6527 16.8678 16.6512C16.7839 16.6497 16.7006 16.6651 16.6227 16.6966C16.5449 16.728 16.4742 16.7748 16.4149 16.8341C16.3555 16.8935 16.3087 16.9642 16.2773 17.042C16.2459 17.1198 16.2304 17.2032 16.2319 17.2871C16.2334 17.371 16.2518 17.4538 16.2859 17.5304C16.3201 17.6071 16.3693 17.6761 16.4307 17.7333L19.3474 20.65C19.4646 20.767 19.6234 20.8328 19.7891 20.8328C19.9547 20.8328 20.1135 20.767 20.2307 20.65L23.1474 17.7333C23.2088 17.6761 23.2581 17.6071 23.2922 17.5304C23.3264 17.4538 23.3447 17.371 23.3462 17.2871C23.3477 17.2032 23.3323 17.1198 23.3008 17.042C23.2694 16.9642 23.2226 16.8935 23.1633 16.8341C23.1039 16.7748 23.0332 16.728 22.9554 16.6966C22.8776 16.6651 22.7942 16.6497 22.7103 16.6512C22.6264 16.6527 22.5436 16.671 22.4669 16.7052C22.3903 16.7393 22.3213 16.7886 22.2641 16.85L20.4141 18.7ZM6.66406 11.0417C6.66406 10.8759 6.72991 10.7169 6.84712 10.5997C6.96433 10.4825 7.1233 10.4167 7.28906 10.4167H15.2057C15.3715 10.4167 15.5305 10.4825 15.6477 10.5997C15.7649 10.7169 15.8307 10.8759 15.8307 11.0417C15.8307 11.2074 15.7649 11.3664 15.6477 11.4836C15.5305 11.6008 15.3715 11.6667 15.2057 11.6667H7.28906C7.1233 11.6667 6.96433 11.6008 6.84712 11.4836C6.72991 11.3664 6.66406 11.2074 6.66406 11.0417ZM6.66406 15.2083C6.66406 15.0426 6.72991 14.8836 6.84712 14.7664C6.96433 14.6492 7.1233 14.5833 7.28906 14.5833H11.8724C12.0382 14.5833 12.1971 14.6492 12.3143 14.7664C12.4315 14.8836 12.4974 15.0426 12.4974 15.2083C12.4974 15.3741 12.4315 15.5331 12.3143 15.6503C12.1971 15.7675 12.0382 15.8333 11.8724 15.8333H7.28906C7.1233 15.8333 6.96433 15.7675 6.84712 15.6503C6.72991 15.5331 6.66406 15.3741 6.66406 15.2083ZM6.66406 19.375C6.66406 19.2092 6.72991 19.0503 6.84712 18.9331C6.96433 18.8158 7.1233 18.75 7.28906 18.75H10.2057C10.3715 18.75 10.5305 18.8158 10.6477 18.9331C10.7649 19.0503 10.8307 19.2092 10.8307 19.375C10.8307 19.5408 10.7649 19.6997 10.6477 19.8169C10.5305 19.9342 10.3715 20 10.2057 20H7.28906C7.1233 20 6.96433 19.9342 6.84712 19.8169C6.72991 19.6997 6.66406 19.5408 6.66406 19.375Z" fill="#4F4F4F"/>
</svg>
