<svg width="20" height="20" viewBox="0 0 20 20" fill="none" xmlns="http://www.w3.org/2000/svg">
<path d="M13.4583 12.5476C13.2926 12.5476 13.1336 12.6229 13.0164 12.7568C12.8992 12.8908 12.8333 13.0725 12.8333 13.2619C12.8333 13.4513 12.8992 13.633 13.0164 13.767C13.1336 13.9009 13.2926 13.9762 13.4583 13.9762H15.5417C15.7074 13.9762 15.8664 13.9009 15.9836 13.767C16.1008 13.633 16.1667 13.4513 16.1667 13.2619C16.1667 13.0725 16.1008 12.8908 15.9836 12.7568C15.8664 12.6229 15.7074 12.5476 15.5417 12.5476H13.4583ZM2 6.59524C2 5.77433 2.28534 4.98704 2.79325 4.40657C3.30116 3.8261 3.99004 3.5 4.70833 3.5H15.9583C16.314 3.5 16.6662 3.58006 16.9948 3.73561C17.3234 3.89116 17.6219 4.11915 17.8734 4.40657C18.1249 4.69399 18.3244 5.03521 18.4605 5.41074C18.5966 5.78627 18.6667 6.18877 18.6667 6.59524V13.7381C18.6667 14.1446 18.5966 14.5471 18.4605 14.9226C18.3244 15.2981 18.1249 15.6393 17.8734 15.9268C17.6219 16.2142 17.3234 16.4422 16.9948 16.5977C16.6662 16.7533 16.314 16.8333 15.9583 16.8333H4.70833C3.99004 16.8333 3.30116 16.5072 2.79325 15.9268C2.28534 15.3463 2 14.559 2 13.7381V6.59524ZM17.4167 7.78571V6.59524C17.4167 6.15321 17.263 5.72929 16.9895 5.41673C16.716 5.10417 16.3451 4.92857 15.9583 4.92857H4.70833C4.32156 4.92857 3.95063 5.10417 3.67714 5.41673C3.40365 5.72929 3.25 6.15321 3.25 6.59524V7.78571H17.4167ZM3.25 9.21429V13.7381C3.25 14.6581 3.90333 15.4048 4.70833 15.4048H15.9583C16.3451 15.4048 16.716 15.2292 16.9895 14.9166C17.263 14.604 17.4167 14.1801 17.4167 13.7381V9.21429H3.25Z" fill="#181818"/>
</svg>
