<svg width="32" height="32" viewBox="0 0 32 32" fill="none" xmlns="http://www.w3.org/2000/svg">
<circle cx="16" cy="16" r="16" fill="#EEEEEE"/>
<path d="M22.1988 22.1983L19.2799 19.2794M19.2799 19.2794C19.7484 18.8109 20.12 18.2547 20.3735 17.6426C20.6271 17.0304 20.7576 16.3744 20.7576 15.7118C20.7576 15.0492 20.6271 14.3932 20.3735 13.7811C20.12 13.1689 19.7484 12.6127 19.2799 12.1442C18.8114 11.6757 18.2552 11.3041 17.643 11.0506C17.0309 10.797 16.3749 10.6665 15.7123 10.6665C15.0497 10.6665 14.3937 10.797 13.7815 11.0506C13.1694 11.3041 12.6132 11.6757 12.1447 12.1442C11.1985 13.0904 10.667 14.3737 10.667 15.7118C10.667 17.0499 11.1985 18.3332 12.1447 19.2794C13.0909 20.2256 14.3742 20.7571 15.7123 20.7571C17.0504 20.7571 18.3337 20.2256 19.2799 19.2794Z" stroke="#4F4F4F" stroke-width="1.5" stroke-linecap="round" stroke-linejoin="round"/>
</svg>
