<svg width="36" height="36" viewBox="0 0 36 36" fill="none" xmlns="http://www.w3.org/2000/svg">
<circle cx="18" cy="18" r="18" fill="#0991FF"/>
<g clip-path="url(#clip0_128_4271)">
<path d="M18.4025 24.4678H13.2025C12.513 24.4678 11.8517 24.1939 11.3641 23.7063C10.8765 23.2187 10.6025 22.5574 10.6025 21.8678V14.9345C10.6025 14.2449 10.8765 13.5836 11.3641 13.096C11.8517 12.6084 12.513 12.3345 13.2025 12.3345H23.6025C24.2921 12.3345 24.9534 12.6084 25.441 13.096C25.9286 13.5836 26.2025 14.2449 26.2025 14.9345V18.8345M10.6025 16.6678H26.2025M14.0692 21.0011H14.0779M17.5359 21.0011H19.2692M21.8692 24.4678H27.0692M21.8692 24.4678L24.4692 21.8678M21.8692 24.4678L24.4692 27.0678" stroke="white" stroke-width="2" stroke-linecap="round" stroke-linejoin="round"/>
</g>
<defs>
<clipPath id="clip0_128_4271">
<rect width="20.8" height="20.8" fill="white" transform="translate(8.00098 8.00049)"/>
</clipPath>
</defs>
</svg>
