<svg width="20" height="20" viewBox="0 0 20 20" fill="none" xmlns="http://www.w3.org/2000/svg">
<path d="M14.5328 7.77513H13.6161V5.33346C13.6161 4.37426 13.2351 3.45435 12.5568 2.77609C11.8786 2.09784 10.9587 1.7168 9.99948 1.7168C9.04028 1.7168 8.12037 2.09784 7.44211 2.77609C6.76385 3.45435 6.38281 4.37426 6.38281 5.33346V7.77513H5.46615C4.91361 7.77513 4.38371 7.99462 3.99301 8.38532C3.60231 8.77603 3.38281 9.30593 3.38281 9.85846V16.2001C3.38435 16.7522 3.60434 17.2812 3.99471 17.6716C4.38507 18.0619 4.91408 18.2819 5.46615 18.2835H14.5328C15.0849 18.2819 15.6139 18.0619 16.0043 17.6716C16.3946 17.2812 16.6146 16.7522 16.6161 16.2001V9.85846C16.6161 9.30593 16.3967 8.77603 16.006 8.38532C15.6153 7.99462 15.0853 7.77513 14.5328 7.77513ZM7.21615 5.33346C7.21615 4.59528 7.50939 3.88733 8.03137 3.36535C8.55334 2.84337 9.26129 2.55013 9.99948 2.55013C10.7377 2.55013 11.4456 2.84337 11.9676 3.36535C12.4896 3.88733 12.7828 4.59528 12.7828 5.33346V7.77513H7.21615V5.33346ZM15.7828 16.2001C15.7806 16.531 15.6482 16.8477 15.4143 17.0816C15.1803 17.3155 14.8637 17.4479 14.5328 17.4501H5.46615C5.1353 17.4479 4.81862 17.3155 4.58468 17.0816C4.35073 16.8477 4.21833 16.531 4.21615 16.2001V9.85846C4.21615 9.52694 4.34784 9.209 4.58226 8.97458C4.81668 8.74016 5.13463 8.60846 5.46615 8.60846H14.5328C14.8643 8.60846 15.1823 8.74016 15.4167 8.97458C15.6511 9.209 15.7828 9.52694 15.7828 9.85846V16.2001Z" fill="#181818" stroke="#181818" stroke-width="0.5"/>
<path d="M10.8346 12.4583C10.8355 12.6041 10.7973 12.7474 10.724 12.8735C10.6507 12.9995 10.5451 13.1036 10.418 13.175V14.425C10.418 14.5355 10.3741 14.6415 10.2959 14.7196C10.2178 14.7978 10.1118 14.8417 10.0013 14.8417C9.89081 14.8417 9.78483 14.7978 9.70669 14.7196C9.62855 14.6415 9.58465 14.5355 9.58465 14.425V13.175C9.45756 13.1036 9.35189 12.9995 9.27862 12.8735C9.20535 12.7474 9.16715 12.6041 9.16798 12.4583C9.16798 12.2373 9.25578 12.0254 9.41206 11.8691C9.56834 11.7128 9.7803 11.625 10.0013 11.625C10.2223 11.625 10.4343 11.7128 10.5906 11.8691C10.7469 12.0254 10.8346 12.2373 10.8346 12.4583Z" fill="#181818" stroke="#181818" stroke-width="0.5"/>
</svg>
