<svg width="24" height="24" viewBox="0 0 24 24" fill="none" xmlns="http://www.w3.org/2000/svg">
<circle cx="12" cy="12" r="11.5" transform="matrix(1 0 0 -1 0 24)" stroke="#181818"/>
<path fill-rule="evenodd" clip-rule="evenodd" d="M15.1412 11.9998C15.1412 11.8672 15.0885 11.7401 14.9947 11.6463C14.9009 11.5525 14.7738 11.4998 14.6412 11.4998H8.39116C8.25855 11.4998 8.13137 11.5525 8.03761 11.6463C7.94384 11.7401 7.89116 11.8672 7.89116 11.9998C7.89116 12.1324 7.94384 12.2596 8.03761 12.3534C8.13137 12.4472 8.25855 12.4998 8.39116 12.4998H14.6412C14.7738 12.4998 14.9009 12.4472 14.9947 12.3534C15.0885 12.2596 15.1412 12.1324 15.1412 11.9998Z" fill="#181818"/>
<path fill-rule="evenodd" clip-rule="evenodd" d="M15.8912 11.9997C15.8911 11.8671 15.8384 11.74 15.7447 11.6462L13.4947 9.39624C13.4009 9.30242 13.2737 9.24968 13.1411 9.24964C13.0084 9.24959 12.8812 9.30223 12.7874 9.39599C12.6936 9.48974 12.6409 9.61693 12.6408 9.74956C12.6408 9.8822 12.6934 10.0094 12.7872 10.1032L14.6842 11.9997L12.7877 13.8962C12.6939 13.9901 12.6413 14.1173 12.6413 14.2499C12.6414 14.3826 12.6941 14.5097 12.7879 14.6035C12.8817 14.6972 13.009 14.7499 13.1416 14.7498C13.2742 14.7498 13.4014 14.6971 13.4952 14.6032L15.7452 12.3532C15.8388 12.2594 15.8913 12.1323 15.8912 11.9997Z" fill="#181818"/>
</svg>
