<svg width="30" height="30" viewBox="0 0 30 30" fill="none" xmlns="http://www.w3.org/2000/svg">
<circle cx="15" cy="15" r="14.4475" fill="white" stroke="#E5E5E5" stroke-width="1.10492"/>
<path d="M10.6557 13.3979C10.7963 13.2573 10.9871 13.1783 11.1859 13.1783C11.3848 13.1783 11.5755 13.2573 11.7162 13.3979L15.4287 17.1104L19.1412 13.3979C19.2826 13.2613 19.4721 13.1857 19.6687 13.1874C19.8654 13.1891 20.0535 13.268 20.1926 13.4071C20.3316 13.5461 20.4105 13.7342 20.4122 13.9309C20.4139 14.1275 20.3383 14.317 20.2017 14.4584L15.9589 18.7012C15.8183 18.8418 15.6276 18.9208 15.4287 18.9208C15.2298 18.9208 15.0391 18.8418 14.8984 18.7012L10.6557 14.4584C10.5151 14.3178 10.4361 14.1271 10.4361 13.9282C10.4361 13.7293 10.5151 13.5386 10.6557 13.3979Z" fill="black"/>
</svg>
