<svg width="30" height="30" viewBox="0 0 30 30" fill="none" xmlns="http://www.w3.org/2000/svg">
<circle cx="15" cy="15" r="14.4475" transform="matrix(1 0 0 -1 0 30)" fill="white" stroke="#E5E5E5" stroke-width="1.10492"/>
<path d="M10.6561 16.6024C10.7968 16.743 10.9875 16.822 11.1864 16.822C11.3852 16.822 11.576 16.743 11.7166 16.6024L15.4291 12.8899L19.1416 16.6024C19.2831 16.739 19.4725 16.8146 19.6692 16.8129C19.8658 16.8112 20.0539 16.7323 20.193 16.5933C20.332 16.4542 20.4109 16.2661 20.4126 16.0695C20.4143 15.8728 20.3387 15.6834 20.2021 15.5419L15.9594 11.2992C15.8187 11.1586 15.628 11.0796 15.4291 11.0796C15.2302 11.0796 15.0395 11.1586 14.8989 11.2992L10.6561 15.5419C10.5155 15.6826 10.4365 15.8733 10.4365 16.0722C10.4365 16.2711 10.5155 16.4618 10.6561 16.6024Z" fill="black"/>
</svg>
