<svg width="85" height="91" viewBox="0 0 85 91" fill="none" xmlns="http://www.w3.org/2000/svg">
<g filter="url(#filter0_d_1521_2284)">
<rect x="21.1177" y="7.53711" width="54.0356" height="60.79" rx="9.07042" transform="rotate(10 21.1177 7.53711)" fill="#FD8130"/>
<path d="M31.7336 34.4004C31.8925 33.4996 32.4026 32.6988 33.1519 32.1741C33.9012 31.6495 34.8282 31.444 35.729 31.6028L53.0205 34.6517C53.9213 34.8106 54.7221 35.3208 55.2467 36.0701C55.7714 36.8193 55.9769 37.7464 55.8181 38.6472L55.1647 42.3525C55.1214 42.5982 54.9823 42.8166 54.7779 42.9596C54.5736 43.1027 54.3208 43.1588 54.0751 43.1155C53.6656 43.0433 53.2442 43.1367 52.9037 43.3752C52.5631 43.6136 52.3312 43.9777 52.259 44.3871C52.1868 44.7966 52.2802 45.2179 52.5187 45.5585C52.7571 45.8991 53.1212 46.131 53.5306 46.2032C53.7763 46.2465 53.9947 46.3857 54.1378 46.59C54.2809 46.7944 54.3369 47.0472 54.2936 47.2929L53.6403 50.9982C53.4814 51.899 52.9713 52.6998 52.222 53.2245C51.4727 53.7491 50.5457 53.9546 49.6448 53.7958L32.3534 50.7469C31.4526 50.588 30.6518 50.0778 30.1271 49.3286C29.6025 48.5793 29.397 47.6523 29.5558 46.7514L30.2091 43.0461C30.2525 42.8005 30.3916 42.5821 30.596 42.439C30.8003 42.2959 31.0531 42.2398 31.2988 42.2831C31.7083 42.3553 32.1296 42.2619 32.4702 42.0235C32.8108 41.785 33.0427 41.421 33.1149 41.0115C33.1871 40.602 33.0937 40.1807 32.8552 39.8401C32.6167 39.4995 32.2527 39.2676 31.8433 39.1954C31.5976 39.1521 31.3792 39.0129 31.2361 38.8086C31.093 38.6042 31.037 38.3514 31.0803 38.1057L31.7336 34.4004ZM44.4844 37.9222C44.5277 37.6766 44.4717 37.4237 44.3286 37.2194C44.1855 37.015 43.9671 36.8759 43.7214 36.8326C43.4757 36.7893 43.2229 36.8453 43.0186 36.9884C42.8142 37.1315 42.6751 37.3499 42.6317 37.5956L42.5229 38.2131C42.4795 38.4588 42.5356 38.7116 42.6787 38.916C42.8218 39.1203 43.0402 39.2595 43.2858 39.3028C43.5315 39.3461 43.7843 39.29 43.9887 39.147C44.193 39.0039 44.3322 38.7855 44.3755 38.5398L44.4844 37.9222ZM43.6677 42.5539C43.711 42.3082 43.655 42.0554 43.5119 41.851C43.3688 41.6467 43.1504 41.5075 42.9047 41.4642C42.659 41.4209 42.4062 41.4769 42.2019 41.62C41.9975 41.7631 41.8584 41.9815 41.8151 42.2272L41.7062 42.8447C41.6629 43.0904 41.7189 43.3432 41.862 43.5476C42.0051 43.7519 42.2235 43.8911 42.4692 43.9344C42.7148 43.9777 42.9677 43.9217 43.172 43.7786C43.3764 43.6355 43.5155 43.4171 43.5588 43.1714L43.6677 42.5539ZM42.851 47.1855C42.8944 46.9398 42.8383 46.687 42.6952 46.4826C42.5521 46.2783 42.3337 46.1392 42.088 46.0958C41.8424 46.0525 41.5895 46.1086 41.3852 46.2517C41.1808 46.3947 41.0417 46.6131 40.9984 46.8588L40.8895 47.4764C40.8462 47.722 40.9022 47.9749 41.0453 48.1792C41.1884 48.3836 41.4068 48.5227 41.6525 48.566C41.8982 48.6094 42.151 48.5533 42.3553 48.4102C42.5597 48.2671 42.6988 48.0487 42.7421 47.803L42.851 47.1855Z" fill="white"/>
</g>
<defs>
<filter id="filter0_d_1521_2284" x="9.72748e-05" y="-0.000110149" width="84.8936" height="90.3714" filterUnits="userSpaceOnUse" color-interpolation-filters="sRGB">
<feFlood flood-opacity="0" result="BackgroundImageFix"/>
<feColorMatrix in="SourceAlpha" type="matrix" values="0 0 0 0 0 0 0 0 0 0 0 0 0 0 0 0 0 0 127 0" result="hardAlpha"/>
<feOffset dy="3.02347"/>
<feGaussianBlur stdDeviation="6.04695"/>
<feComposite in2="hardAlpha" operator="out"/>
<feColorMatrix type="matrix" values="0 0 0 0 0 0 0 0 0 0 0 0 0 0 0 0 0 0 0.2 0"/>
<feBlend mode="normal" in2="BackgroundImageFix" result="effect1_dropShadow_1521_2284"/>
<feBlend mode="normal" in="SourceGraphic" in2="effect1_dropShadow_1521_2284" result="shape"/>
</filter>
</defs>
</svg>
