<svg width="64" height="70" viewBox="0 0 64 70" fill="none" xmlns="http://www.w3.org/2000/svg">
<rect x="-0.306947" y="-0.438366" width="54.7915" height="61.5447" rx="9.46016" transform="matrix(0.984808 0.173645 -0.173651 0.984807 10.475 0.0466399)" fill="#EEEEEE" stroke="#D9D9D9" stroke-width="0.756813"/>
<path d="M21.0917 26.6711C21.2494 25.7767 21.756 24.9816 22.4999 24.4607C23.2439 23.9398 24.1643 23.7357 25.0587 23.8934L42.2269 26.9206C43.1213 27.0783 43.9164 27.5848 44.4373 28.3288C44.9582 29.0727 45.1623 29.9931 45.0045 30.8875L44.3559 34.5663C44.3128 34.8102 44.1747 35.0271 43.9718 35.1691C43.7689 35.3112 43.5179 35.3669 43.274 35.3239C42.8674 35.2522 42.4491 35.3449 42.1109 35.5817C41.7727 35.8185 41.5425 36.1799 41.4708 36.5864C41.3991 36.993 41.4919 37.4113 41.7286 37.7495C41.9654 38.0876 42.3268 38.3179 42.7334 38.3895C42.9773 38.4326 43.1942 38.5707 43.3362 38.7736C43.4783 38.9765 43.534 39.2275 43.4909 39.4714L42.8423 43.1502C42.6845 44.0446 42.178 44.8397 41.4341 45.3606C40.6901 45.8815 39.7697 46.0856 38.8753 45.9279L21.7071 42.9007C20.8127 42.743 20.0176 42.2365 19.4967 41.4926C18.9758 40.7486 18.7717 39.8282 18.9294 38.9338L19.5781 35.255C19.6211 35.0111 19.7593 34.7943 19.9622 34.6522C20.1651 34.5101 20.4161 34.4545 20.66 34.4975C21.0666 34.5692 21.4849 34.4764 21.8231 34.2396C22.1612 34.0029 22.3915 33.6415 22.4632 33.2349C22.5349 32.8284 22.4421 32.41 22.2053 32.0719C21.9686 31.7337 21.6071 31.5035 21.2006 31.4318C20.9567 31.3888 20.7398 31.2506 20.5978 31.0477C20.4557 30.8449 20.4 30.5938 20.443 30.3499L21.0917 26.6711ZM33.7516 30.1677C33.7946 29.9238 33.739 29.6728 33.5969 29.4699C33.4549 29.267 33.238 29.1289 32.9941 29.0859C32.7502 29.0428 32.4991 29.0985 32.2962 29.2406C32.0933 29.3826 31.9552 29.5995 31.9122 29.8434L31.8041 30.4565C31.7611 30.7005 31.8167 30.9515 31.9588 31.1544C32.1008 31.3573 32.3177 31.4954 32.5616 31.5384C32.8055 31.5814 33.0566 31.5258 33.2595 31.3837C33.4624 31.2416 33.6005 31.0248 33.6435 30.7809L33.7516 30.1677ZM32.9408 34.7663C32.9838 34.5223 32.9281 34.2713 32.7861 34.0684C32.644 33.8655 32.4271 33.7274 32.1832 33.6844C31.9393 33.6414 31.6883 33.697 31.4854 33.8391C31.2825 33.9812 31.1443 34.198 31.1013 34.4419L30.9932 35.0551C30.9502 35.299 31.0059 35.55 31.1479 35.7529C31.29 35.9558 31.5068 36.0939 31.7508 36.1369C31.9947 36.18 32.2457 36.1243 32.4486 35.9822C32.6515 35.8402 32.7896 35.6233 32.8327 35.3794L32.9408 34.7663ZM32.1299 39.3648C32.1729 39.1209 32.1173 38.8699 31.9752 38.667C31.8331 38.4641 31.6163 38.3259 31.3724 38.2829C31.1284 38.2399 30.8774 38.2956 30.6745 38.4376C30.4716 38.5797 30.3335 38.7965 30.2905 39.0405L30.1824 39.6536C30.1393 39.8975 30.195 40.1485 30.3371 40.3514C30.4791 40.5543 30.696 40.6925 30.9399 40.7355C31.1838 40.7785 31.4348 40.7228 31.6377 40.5808C31.8406 40.4387 31.9788 40.2219 32.0218 39.9779L32.1299 39.3648Z" fill="#4F4F4F"/>
</svg>
