<svg width="64" height="70" viewBox="0 0 64 70" fill="none" xmlns="http://www.w3.org/2000/svg">
<rect x="-0.438434" y="9.07607" width="54.7915" height="61.5458" rx="9.46029" transform="rotate(-10 -0.438434 9.07607)" fill="#EEEEEE" stroke="#D9D9D9" stroke-width="0.756824"/>
<g clip-path="url(#clip0_1521_1166)">
<path d="M30.1722 24.893C28.1745 25.2453 26.326 26.182 24.8607 27.5848C23.3953 28.9876 22.3788 30.7934 21.9398 32.7738C21.5007 34.7543 21.6588 36.8205 22.394 38.7111C23.1293 40.6018 24.4086 42.2319 26.0703 43.3955C27.732 44.559 29.7014 45.2036 31.7295 45.2479C33.7576 45.2922 35.7532 44.734 37.4641 43.6441C39.175 42.5541 40.5242 40.9813 41.3412 39.1246C42.1582 37.2678 42.4063 35.2105 42.054 33.2127C41.5792 30.5351 40.0614 28.1552 37.8338 26.5955C35.6062 25.0357 32.8508 24.4234 30.1722 24.893ZM32.562 34.1244L31.1719 26.2408C33.2366 26.0481 35.3025 26.5952 37.0011 27.7846C38.6998 28.974 39.9205 30.7282 40.4455 32.7343L32.562 34.1244Z" fill="#4F4F4F"/>
</g>
<defs>
<clipPath id="clip0_1521_1166">
<rect width="24.0154" height="24.0154" fill="white" transform="translate(18.0432 25.2522) rotate(-10)"/>
</clipPath>
</defs>
</svg>
