<svg width="62" height="62" viewBox="0 0 62 62" fill="none" xmlns="http://www.w3.org/2000/svg">
<circle cx="31" cy="31" r="31" fill="#FF4000"/>
<path d="M24 40.3107C23.45 40.3107 22.9793 40.115 22.588 39.7237C22.1967 39.3323 22.0007 38.8613 22 38.3107V24.3107C22 23.7607 22.196 23.29 22.588 22.8987C22.98 22.5073 23.4507 22.3113 24 22.3107H38C38.55 22.3107 39.021 22.5067 39.413 22.8987C39.805 23.2907 40.0007 23.7613 40 24.3107V38.3107C40 38.8607 39.8043 39.3317 39.413 39.7237C39.0217 40.1157 38.5507 40.3113 38 40.3107H24ZM24 38.3107H38V24.3107H24V38.3107ZM25 36.3107H37L33.25 31.3107L30.25 35.3107L28 32.3107L25 36.3107Z" fill="white"/>
</svg>
