<svg width="36" height="36" viewBox="0 0 36 36" fill="none" xmlns="http://www.w3.org/2000/svg">
<circle cx="18" cy="18" r="18" fill="#EEEEEE"/>
<path d="M17.9995 27C19.1814 27 20.3517 26.7672 21.4437 26.3149C22.5356 25.8626 23.5277 25.1997 24.3635 24.364C25.1992 23.5282 25.8621 22.5361 26.3144 21.4441C26.7667 20.3522 26.9995 19.1819 26.9995 18C26.9995 16.8181 26.7667 15.6478 26.3144 14.5558C25.8621 13.4639 25.1992 12.4718 24.3635 11.636C23.5277 10.8003 22.5356 10.1374 21.4437 9.68508C20.3517 9.23279 19.1814 9 17.9995 9M17.9995 27C16.8176 27 15.6473 26.7672 14.5554 26.3149C13.4634 25.8626 12.4713 25.1997 11.6356 24.364C10.7998 23.5282 10.1369 22.5361 9.6846 21.4441C9.2323 20.3522 8.99951 19.1819 8.99951 18C8.99951 16.8181 9.2323 15.6478 9.6846 14.5558C10.1369 13.4639 10.7998 12.4718 11.6356 11.636C12.4713 10.8003 13.4634 10.1374 14.5554 9.68508C15.6473 9.23279 16.8176 9 17.9995 9M17.9995 27C20.7605 27 21.9405 21.837 21.9405 18C21.9405 14.163 20.7605 9 17.9995 9M17.9995 27C15.2385 27 14.0585 21.837 14.0585 18C14.0585 14.163 15.2385 9 17.9995 9M9.49951 15H26.4995M9.49951 21H26.4995" stroke="#4F4F4F" stroke-linecap="round" stroke-linejoin="round"/>
</svg>
