<svg width="20" height="20" viewBox="0 0 20 20" fill="none" xmlns="http://www.w3.org/2000/svg">
<path d="M10 12.5C11.3807 12.5 12.5 11.3807 12.5 10C12.5 8.61929 11.3807 7.5 10 7.5C8.61929 7.5 7.5 8.61929 7.5 10C7.5 11.3807 8.61929 12.5 10 12.5Z" stroke="#434343" stroke-width="1.5"/>
<path d="M11.4722 1.79268C11.1664 1.66602 10.778 1.66602 10.0014 1.66602C9.22469 1.66602 8.83635 1.66602 8.53052 1.79268C8.32817 1.87644 8.14431 1.99926 7.98946 2.15412C7.8346 2.30898 7.71178 2.49283 7.62802 2.69518C7.55135 2.88102 7.52052 3.09852 7.50885 3.41435C7.50343 3.64262 7.44019 3.86579 7.32505 4.06298C7.20992 4.26016 7.04665 4.42493 6.85052 4.54185C6.65119 4.65332 6.42684 4.71241 6.19846 4.71358C5.97008 4.71474 5.74514 4.65795 5.54469 4.54852C5.26469 4.40018 5.06219 4.31852 4.86135 4.29185C4.42328 4.23424 3.98027 4.35294 3.62969 4.62185C3.36802 4.82435 3.17302 5.16018 2.78469 5.83268C2.39635 6.50518 2.20135 6.84102 2.15885 7.17018C2.13021 7.38723 2.14462 7.60779 2.20124 7.81926C2.25786 8.03074 2.35559 8.22899 2.48885 8.40268C2.61219 8.56268 2.78469 8.69685 3.05219 8.86518C3.44635 9.11268 3.69969 9.53435 3.69969 9.99935C3.69969 10.4643 3.44635 10.886 3.05219 11.1327C2.78469 11.3018 2.61135 11.436 2.48885 11.596C2.35559 11.7697 2.25786 11.968 2.20124 12.1794C2.14462 12.3909 2.13021 12.6115 2.15885 12.8285C2.20219 13.1568 2.39635 13.4935 2.78385 14.166C3.17302 14.8385 3.36719 15.1743 3.62969 15.3768C3.80338 15.5101 4.00163 15.6078 4.21311 15.6645C4.42458 15.7211 4.64514 15.7355 4.86219 15.7068C5.06219 15.6802 5.26469 15.5985 5.54469 15.4502C5.74514 15.3407 5.97008 15.284 6.19846 15.2851C6.42684 15.2863 6.65119 15.3454 6.85052 15.4568C7.25302 15.6902 7.49219 16.1193 7.50885 16.5843C7.52052 16.901 7.55052 17.1177 7.62802 17.3035C7.71178 17.5059 7.8346 17.6897 7.98946 17.8446C8.14431 17.9994 8.32817 18.1223 8.53052 18.206C8.83635 18.3327 9.22469 18.3327 10.0014 18.3327C10.778 18.3327 11.1664 18.3327 11.4722 18.206C11.6745 18.1223 11.8584 17.9994 12.0132 17.8446C12.1681 17.6897 12.2909 17.5059 12.3747 17.3035C12.4514 17.1177 12.4822 16.901 12.4939 16.5843C12.5105 16.1193 12.7497 15.6893 13.1522 15.4568C13.3515 15.3454 13.5759 15.2863 13.8042 15.2851C14.0326 15.284 14.2576 15.3407 14.458 15.4502C14.738 15.5985 14.9405 15.6802 15.1405 15.7068C15.3576 15.7355 15.5781 15.7211 15.7896 15.6645C16.0011 15.6078 16.1993 15.5101 16.373 15.3768C16.6355 15.1752 16.8297 14.8385 17.218 14.166C17.6064 13.4935 17.8014 13.1577 17.8439 12.8285C17.8725 12.6115 17.8581 12.3909 17.8015 12.1794C17.7448 11.968 17.6471 11.7697 17.5139 11.596C17.3905 11.436 17.218 11.3018 16.9505 11.1335C16.7555 11.0147 16.5937 10.8483 16.4805 10.6499C16.3673 10.4516 16.3062 10.2277 16.303 9.99935C16.303 9.53435 16.5564 9.11268 16.9505 8.86602C17.218 8.69685 17.3914 8.56268 17.5139 8.40268C17.6471 8.22899 17.7448 8.03074 17.8015 7.81926C17.8581 7.60779 17.8725 7.38723 17.8439 7.17018C17.8005 6.84185 17.6064 6.50518 17.2189 5.83268C16.8297 5.16018 16.6355 4.82435 16.373 4.62185C16.1993 4.48859 16.0011 4.39086 15.7896 4.33424C15.5781 4.27762 15.3576 4.26321 15.1405 4.29185C14.9405 4.31852 14.738 4.40018 14.4572 4.54852C14.2568 4.6578 14.032 4.71451 13.8038 4.71335C13.5756 4.71218 13.3514 4.65318 13.1522 4.54185C12.9561 4.42493 12.7928 4.26016 12.6777 4.06298C12.5625 3.86579 12.4993 3.64262 12.4939 3.41435C12.4822 3.09768 12.4522 2.88102 12.3747 2.69518C12.2909 2.49283 12.1681 2.30898 12.0132 2.15412C11.8584 1.99926 11.6745 1.87644 11.4722 1.79268Z" stroke="#434343" stroke-width="1.5"/>
</svg>
