<svg width="32" height="32" viewBox="0 0 32 32" fill="none" xmlns="http://www.w3.org/2000/svg">
<circle cx="16" cy="16" r="16" fill="black"/>
<path d="M16.8626 10.8573C16.8626 10.6301 16.7723 10.4121 16.6116 10.2515C16.4509 10.0908 16.233 10.0005 16.0058 10.0005C15.7785 10.0005 15.5606 10.0908 15.3999 10.2515C15.2392 10.4121 15.1489 10.6301 15.1489 10.8573V15.1416H10.8647C10.6374 15.1416 10.4195 15.2319 10.2588 15.3925C10.0981 15.5532 10.0078 15.7712 10.0078 15.9984C10.0078 16.2257 10.0981 16.4436 10.2588 16.6043C10.4195 16.765 10.6374 16.8553 10.8647 16.8553H15.1489V21.1395C15.1489 21.3668 15.2392 21.5847 15.3999 21.7454C15.5606 21.9061 15.7785 21.9964 16.0058 21.9964C16.233 21.9964 16.4509 21.9061 16.6116 21.7454C16.7723 21.5847 16.8626 21.3668 16.8626 21.1395V16.8553H21.1468C21.3741 16.8553 21.592 16.765 21.7527 16.6043C21.9134 16.4436 22.0037 16.2257 22.0037 15.9984C22.0037 15.7712 21.9134 15.5532 21.7527 15.3925C21.592 15.2319 21.3741 15.1416 21.1468 15.1416H16.8626V10.8573Z" fill="white"/>
</svg>
