<svg width="20" height="20" viewBox="0 0 20 20" fill="none" xmlns="http://www.w3.org/2000/svg">
<path d="M7.5013 8.33464C9.34225 8.33464 10.8346 6.84225 10.8346 5.0013C10.8346 3.16035 9.34225 1.66797 7.5013 1.66797C5.66035 1.66797 4.16797 3.16035 4.16797 5.0013C4.16797 6.84225 5.66035 8.33464 7.5013 8.33464Z" stroke="#434343" stroke-width="1.5"/>
<path d="M12.5013 7.5C13.1643 7.5 13.8002 7.23661 14.2691 6.76777C14.7379 6.29893 15.0013 5.66304 15.0013 5C15.0013 4.33696 14.7379 3.70107 14.2691 3.23223C13.8002 2.76339 13.1643 2.5 12.5013 2.5M4.90964 17.1533C5.6888 17.375 6.56964 17.5 7.5013 17.5C10.723 17.5 13.3346 16.0083 13.3346 14.1667C13.3346 12.325 10.723 10.8333 7.5013 10.8333C4.27964 10.8333 1.66797 12.325 1.66797 14.1667C1.66797 14.4542 1.73214 14.7333 1.8513 15M15.0013 11.6667C16.463 11.9875 17.5013 12.7992 17.5013 13.75C17.5013 14.6083 16.6563 15.3525 15.418 15.725" stroke="#434343" stroke-width="1.5" stroke-linecap="round"/>
</svg>
