<svg width="30" height="30" viewBox="0 0 30 30" fill="none" xmlns="http://www.w3.org/2000/svg">
<circle cx="15" cy="15" r="15" fill="#EEEEEE"/>
<mask id="mask0_239_9380" style="mask-type:luminance" maskUnits="userSpaceOnUse" x="6" y="6" width="18" height="18">
<path d="M7.5 13.3333C7.5 11.7617 7.5 10.9767 7.98833 10.4883C8.47667 10 9.26167 10 10.8333 10H19.1667C20.7383 10 21.5233 10 22.0117 10.4883C22.5 10.9767 22.5 11.7617 22.5 13.3333V14.1667H7.5V13.3333Z" stroke="#4E4E4E" stroke-width="1.5"/>
<path d="M20.8333 10H9.16667C8.24619 10 7.5 10.7462 7.5 11.6667V20.8333C7.5 21.7538 8.24619 22.5 9.16667 22.5H20.8333C21.7538 22.5 22.5 21.7538 22.5 20.8333V11.6667C22.5 10.7462 21.7538 10 20.8333 10Z" stroke="white" stroke-width="1.5"/>
<path d="M10.8359 7.5V11.6667M19.1693 7.5V11.6667" stroke="white" stroke-width="1.5" stroke-linecap="round"/>
</mask>
<g mask="url(#mask0_239_9380)">
<path d="M5 5H25V25H5V5Z" fill="#4F4F4F"/>
</g>
</svg>
