<svg width="20" height="20" viewBox="0 0 20 20" fill="none" xmlns="http://www.w3.org/2000/svg">
<path d="M16.6654 15.8346V8.7513C16.6654 8.62193 16.6352 8.49434 16.5774 8.37862C16.5195 8.26291 16.4355 8.16226 16.332 8.08464L10.4987 3.70964C10.3545 3.60145 10.179 3.54297 9.9987 3.54297C9.81839 3.54297 9.64294 3.60145 9.4987 3.70964L3.66536 8.08464C3.56187 8.16226 3.47786 8.26291 3.42001 8.37862C3.36215 8.49434 3.33203 8.62193 3.33203 8.7513V15.8346C3.33203 16.0556 3.41983 16.2676 3.57611 16.4239C3.73239 16.5802 3.94435 16.668 4.16536 16.668H7.4987C7.71971 16.668 7.93167 16.5802 8.08795 16.4239C8.24423 16.2676 8.33203 16.0556 8.33203 15.8346V13.3346C8.33203 13.1136 8.41983 12.9017 8.57611 12.7454C8.73239 12.5891 8.94435 12.5013 9.16536 12.5013H10.832C11.053 12.5013 11.265 12.5891 11.4213 12.7454C11.5776 12.9017 11.6654 13.1136 11.6654 13.3346V15.8346C11.6654 16.0556 11.7532 16.2676 11.9094 16.4239C12.0657 16.5802 12.2777 16.668 12.4987 16.668H15.832C16.053 16.668 16.265 16.5802 16.4213 16.4239C16.5776 16.2676 16.6654 16.0556 16.6654 15.8346Z" stroke="#434343" stroke-width="1.5" stroke-linecap="round" stroke-linejoin="round"/>
</svg>
