<svg width="20" height="20" viewBox="0 0 20 20" fill="none" xmlns="http://www.w3.org/2000/svg">
<path d="M2.70703 7.70964H17.2904M6.13286 3.95964V2.29297M13.8412 3.95964V2.29297M14.3737 3.95964H5.6237C4.85015 3.95964 4.10828 4.26693 3.5613 4.81391C3.01432 5.36089 2.70703 6.10275 2.70703 6.8763V14.793C2.70703 15.5665 3.01432 16.3084 3.5613 16.8554C4.10828 17.4023 4.85015 17.7096 5.6237 17.7096H14.3737C15.1472 17.7096 15.8891 17.4023 16.4361 16.8554C16.9831 16.3084 17.2904 15.5665 17.2904 14.793V6.8763C17.2904 6.10275 16.9831 5.36089 16.4361 4.81391C15.8891 4.26693 15.1472 3.95964 14.3737 3.95964Z" stroke="black" stroke-width="1.5" stroke-linecap="round" stroke-linejoin="round"/>
</svg>
