<svg width="20" height="20" viewBox="0 0 20 20" fill="none" xmlns="http://www.w3.org/2000/svg">
<path d="M13.9625 1.66797H6.0375C5.07167 1.66797 4.58917 1.66797 4.19917 1.8038C3.83161 1.9344 3.49904 2.14785 3.22722 2.42762C2.9554 2.70739 2.75162 3.04597 2.63167 3.41714C2.5 3.8188 2.5 4.31547 2.5 5.30964V16.9796C2.5 17.6946 3.32083 18.0746 3.84 17.5996C3.98566 17.465 4.17668 17.3903 4.375 17.3903C4.57331 17.3903 4.76434 17.465 4.91 17.5996L5.3125 17.968C5.56767 18.2039 5.90245 18.335 6.25 18.335C6.59755 18.335 6.93233 18.2039 7.1875 17.968C7.44267 17.732 7.77745 17.6009 8.125 17.6009C8.47255 17.6009 8.80733 17.732 9.0625 17.968C9.31767 18.2039 9.65245 18.335 10 18.335C10.3476 18.335 10.6823 18.2039 10.9375 17.968C11.1927 17.732 11.5274 17.6009 11.875 17.6009C12.2226 17.6009 12.5573 17.732 12.8125 17.968C13.0677 18.2039 13.4024 18.335 13.75 18.335C14.0976 18.335 14.4323 18.2039 14.6875 17.968L15.09 17.5996C15.2357 17.465 15.4267 17.3903 15.625 17.3903C15.8233 17.3903 16.0143 17.465 16.16 17.5996C16.6792 18.0746 17.5 17.6946 17.5 16.9796V5.30964C17.5 4.31547 17.5 3.81797 17.3683 3.41797C17.2485 3.04665 17.0448 2.7079 16.7729 2.42798C16.5011 2.14807 16.1685 1.93449 15.8008 1.8038C15.4108 1.66797 14.9283 1.66797 13.9625 1.66797Z" stroke="#434343" stroke-width="1.5"/>
<path d="M8.7487 9.16667H14.1654M5.83203 9.16667H6.2487M5.83203 6.25H6.2487M5.83203 12.0833H6.2487M8.7487 6.25H14.1654M8.7487 12.0833H14.1654" stroke="#434343" stroke-width="1.5" stroke-linecap="round"/>
</svg>
