<svg width="20" height="20" viewBox="0 0 20 20" fill="none" xmlns="http://www.w3.org/2000/svg">
<path d="M3.75 13.125C3.75 12.7798 3.47018 12.5 3.125 12.5C2.77982 12.5 2.5 12.7798 2.5 13.125C2.5 14.2853 2.96094 15.3981 3.78141 16.2186C4.60188 17.0391 5.71468 17.5 6.875 17.5H8.125C8.47018 17.5 8.75 17.2202 8.75 16.875C8.75 16.5298 8.47018 16.25 8.125 16.25H6.875C6.0462 16.25 5.25134 15.9208 4.66529 15.3347C4.07924 14.7487 3.75 13.9538 3.75 13.125ZM15 6.875C15 7.22018 15.2798 7.5 15.625 7.5C15.9702 7.5 16.25 7.22018 16.25 6.875C16.25 5.71468 15.7891 4.60188 14.9686 3.78141C14.1481 2.96094 13.0353 2.5 11.875 2.5H10.625C10.2798 2.5 10 2.77982 10 3.125C10 3.47018 10.2798 3.75 10.625 3.75H11.875C12.2854 3.75 12.6917 3.83083 13.0709 3.98788C13.45 4.14492 13.7945 4.37511 14.0847 4.66529C14.3749 4.95548 14.6051 5.29997 14.7621 5.67912C14.9192 6.05826 15 6.46462 15 6.875ZM6.875 6.875H3.125C2.62772 6.875 2.15081 7.07255 1.79917 7.42418C1.44754 7.77581 1.25 8.25272 1.25 8.75V9.375C1.25 9.72018 1.52982 10 1.875 10C2.22018 10 2.5 9.72018 2.5 9.375V8.75C2.5 8.58424 2.56585 8.42527 2.68306 8.30806C2.80027 8.19085 2.95924 8.125 3.125 8.125H6.875C7.04076 8.125 7.19973 8.19085 7.31694 8.30806C7.43415 8.42527 7.5 8.58424 7.5 8.75V9.375C7.5 9.72018 7.77982 10 8.125 10C8.47018 10 8.75 9.72018 8.75 9.375V8.75C8.75 8.25272 8.55246 7.77581 8.20083 7.42418C7.84919 7.07255 7.37228 6.875 6.875 6.875ZM5 6.25C5.49445 6.25 5.9778 6.10338 6.38893 5.82868C6.80005 5.55397 7.12048 5.16352 7.3097 4.70671C7.49892 4.24989 7.54843 3.74723 7.45196 3.26228C7.3555 2.77732 7.1174 2.33187 6.76777 1.98223C6.41814 1.6326 5.97268 1.3945 5.48773 1.29804C5.00277 1.20157 4.50011 1.25108 4.04329 1.4403C3.58648 1.62952 3.19603 1.94995 2.92133 2.36108C2.64662 2.7722 2.5 3.25555 2.5 3.75C2.5 4.41304 2.76339 5.04893 3.23223 5.51777C3.70107 5.98661 4.33696 6.25 5 6.25ZM5 2.5C5.24723 2.5 5.4889 2.57331 5.69446 2.71066C5.90002 2.84802 6.06024 3.04324 6.15485 3.27165C6.24946 3.50005 6.27421 3.75139 6.22598 3.99386C6.17775 4.23634 6.0587 4.45907 5.88388 4.63388C5.70907 4.8087 5.48634 4.92775 5.24386 4.97598C5.00139 5.02421 4.75005 4.99946 4.52165 4.90485C4.29324 4.81024 4.09801 4.65003 3.96066 4.44446C3.82331 4.2389 3.75 3.99723 3.75 3.75C3.75 3.41848 3.8817 3.10054 4.11612 2.86612C4.35054 2.6317 4.66848 2.5 5 2.5ZM16.875 15.625H13.125C12.6277 15.625 12.1508 15.8225 11.7992 16.1742C11.4475 16.5258 11.25 17.0027 11.25 17.5V18.125C11.25 18.4702 11.5298 18.75 11.875 18.75C12.2202 18.75 12.5 18.4702 12.5 18.125V17.5C12.5 17.3342 12.5658 17.1753 12.6831 17.0581C12.8003 16.9408 12.9592 16.875 13.125 16.875H16.875C17.0408 16.875 17.1997 16.9408 17.3169 17.0581C17.4342 17.1753 17.5 17.3342 17.5 17.5V18.125C17.5 18.4702 17.7798 18.75 18.125 18.75C18.4702 18.75 18.75 18.4702 18.75 18.125V17.5C18.75 17.0027 18.5525 16.5258 18.2008 16.1742C17.8492 15.8225 17.3723 15.625 16.875 15.625ZM12.5 12.5C12.5 12.9945 12.6466 13.4778 12.9213 13.8889C13.196 14.3 13.5865 14.6205 14.0433 14.8097C14.5001 14.9989 15.0028 15.0484 15.4877 14.952C15.9727 14.8555 16.4181 14.6174 16.7678 14.2678C17.1174 13.9181 17.3555 13.4727 17.452 12.9877C17.5484 12.5028 17.4989 12.0001 17.3097 11.5433C17.1205 11.0865 16.8 10.696 16.3889 10.4213C15.9778 10.1466 15.4945 10 15 10C14.337 10 13.7011 10.2634 13.2322 10.7322C12.7634 11.2011 12.5 11.837 12.5 12.5ZM16.25 12.5C16.25 12.7472 16.1767 12.9889 16.0393 13.1945C15.902 13.4 15.7068 13.5602 15.4784 13.6549C15.2499 13.7495 14.9986 13.7742 14.7561 13.726C14.5137 13.6778 14.2909 13.5587 14.1161 13.3839C13.9413 13.2091 13.8222 12.9863 13.774 12.7439C13.7258 12.5014 13.7505 12.2501 13.8452 12.0216C13.9398 11.7932 14.1 11.598 14.3055 11.4607C14.5111 11.3233 14.7528 11.25 15 11.25C15.3315 11.25 15.6495 11.3817 15.8839 11.6161C16.1183 11.8505 16.25 12.1685 16.25 12.5Z" fill="black" stroke="black" stroke-width="0.3"/>
</svg>
