<svg width="24" height="24" viewBox="0 0 24 24" fill="none" xmlns="http://www.w3.org/2000/svg">
<path d="M16.3597 6.91013H17.0867V7.63717C17.0867 7.82999 17.1633 8.01492 17.2997 8.15126C17.436 8.28761 17.6209 8.36421 17.8138 8.36421C18.0066 8.36421 18.1915 8.28761 18.3279 8.15126C18.4642 8.01492 18.5408 7.82999 18.5408 7.63717V6.91013H19.2678C19.4607 6.91013 19.6456 6.83353 19.7819 6.69718C19.9183 6.56084 19.9949 6.37591 19.9949 6.18309C19.9949 5.99027 19.9183 5.80534 19.7819 5.66899C19.6456 5.53265 19.4607 5.45605 19.2678 5.45605H18.5408V4.72901C18.5408 4.53619 18.4642 4.35126 18.3279 4.21491C18.1915 4.07857 18.0066 4.00197 17.8138 4.00197C17.6209 4.00197 17.436 4.07857 17.2997 4.21491C17.1633 4.35126 17.0867 4.53619 17.0867 4.72901V5.45605H16.3597C16.1669 5.45605 15.9819 5.53265 15.8456 5.66899C15.7092 5.80534 15.6326 5.99027 15.6326 6.18309C15.6326 6.37591 15.7092 6.56084 15.8456 6.69718C15.9819 6.83353 16.1669 6.91013 16.3597 6.91013ZM8.36224 8.36421V15.6346C8.36224 15.8274 8.43884 16.0124 8.57519 16.1487C8.71154 16.2851 8.89646 16.3617 9.08928 16.3617C9.28211 16.3617 9.46703 16.2851 9.60338 16.1487C9.73973 16.0124 9.81632 15.8274 9.81632 15.6346V8.36421C9.81632 8.17139 9.73973 7.98646 9.60338 7.85011C9.46703 7.71377 9.28211 7.63717 9.08928 7.63717C8.89646 7.63717 8.71154 7.71377 8.57519 7.85011C8.43884 7.98646 8.36224 8.17139 8.36224 8.36421ZM18.977 9.81829C18.8835 9.83737 18.7946 9.87469 18.7154 9.92814C18.6363 9.98158 18.5684 10.0501 18.5158 10.1298C18.4631 10.2094 18.4266 10.2987 18.4085 10.3925C18.3903 10.4862 18.3908 10.5826 18.4099 10.6762C18.6938 12.0548 18.5256 13.4882 17.9302 14.7636C17.3348 16.0391 16.344 17.0885 15.1049 17.7562C13.8658 18.4238 12.4444 18.6742 11.0518 18.47C9.65914 18.2658 8.36945 17.618 7.37417 16.6227C6.37889 15.6274 5.73107 14.3377 5.52688 12.9451C5.32269 11.5524 5.57302 10.131 6.24069 8.89194C6.90837 7.65284 7.9578 6.66206 9.23322 6.06668C10.5086 5.4713 11.942 5.30305 13.3207 5.58692C13.5135 5.62548 13.7137 5.58587 13.8773 5.47679C14.041 5.36771 14.1545 5.19811 14.1931 5.00528C14.2317 4.81246 14.1921 4.61222 14.083 4.4486C13.9739 4.28498 13.8043 4.1714 13.6115 4.13284C13.0794 4.03371 12.5385 3.98985 11.9974 4.00197C10.4157 4.00197 8.86948 4.47101 7.5543 5.34978C6.23913 6.22855 5.21408 7.47758 4.60877 8.93892C4.00347 10.4003 3.84509 12.0083 4.15367 13.5596C4.46226 15.111 5.22394 16.536 6.3424 17.6545C7.46086 18.7729 8.88587 19.5346 10.4372 19.8432C11.9886 20.1518 13.5966 19.9934 15.0579 19.3881C16.5193 18.7828 17.7683 17.7577 18.6471 16.4425C19.5258 15.1274 19.9949 13.5812 19.9949 11.9994C19.9964 11.4622 19.9428 10.9262 19.8349 10.3999C19.8175 10.305 19.7814 10.2146 19.7287 10.1338C19.6759 10.053 19.6077 9.98352 19.5278 9.92939C19.448 9.87526 19.3582 9.83755 19.2636 9.81848C19.169 9.7994 19.0716 9.79934 18.977 9.81829ZM11.2704 9.81829V10.5453C11.2736 11.0834 11.4756 11.6013 11.8375 11.9994C11.4756 12.3976 11.2736 12.9154 11.2704 13.4535V14.1805C11.2704 14.759 11.5002 15.3138 11.9092 15.7228C12.3183 16.1319 12.8731 16.3617 13.4515 16.3617H14.1786C14.757 16.3617 15.3118 16.1319 15.7209 15.7228C16.1299 15.3138 16.3597 14.759 16.3597 14.1805V13.4535C16.3565 12.9154 16.1545 12.3976 15.7926 11.9994C16.1545 11.6013 16.3565 11.0834 16.3597 10.5453V9.81829C16.3597 9.23982 16.1299 8.68504 15.7209 8.276C15.3118 7.86697 14.757 7.63717 14.1786 7.63717H13.4515C12.8731 7.63717 12.3183 7.86697 11.9092 8.276C11.5002 8.68504 11.2704 9.23982 11.2704 9.81829ZM14.9056 14.1805C14.9056 14.3734 14.829 14.5583 14.6927 14.6946C14.5563 14.831 14.3714 14.9076 14.1786 14.9076H13.4515C13.2587 14.9076 13.0738 14.831 12.9374 14.6946C12.8011 14.5583 12.7245 14.3734 12.7245 14.1805V13.4535C12.7245 13.2607 12.8011 13.0757 12.9374 12.9394C13.0738 12.803 13.2587 12.7264 13.4515 12.7264H14.1786C14.3714 12.7264 14.5563 12.803 14.6927 12.9394C14.829 13.0757 14.9056 13.2607 14.9056 13.4535V14.1805ZM14.9056 9.81829V10.5453C14.9056 10.7382 14.829 10.9231 14.6927 11.0594C14.5563 11.1958 14.3714 11.2724 14.1786 11.2724H13.4515C13.2587 11.2724 13.0738 11.1958 12.9374 11.0594C12.8011 10.9231 12.7245 10.7382 12.7245 10.5453V9.81829C12.7245 9.62547 12.8011 9.44054 12.9374 9.30419C13.0738 9.16785 13.2587 9.09125 13.4515 9.09125H14.1786C14.3714 9.09125 14.5563 9.16785 14.6927 9.30419C14.829 9.44054 14.9056 9.62547 14.9056 9.81829Z" fill="#4F4F4F"/>
</svg>
