<svg width="24" height="24" viewBox="0 0 24 24" fill="none" xmlns="http://www.w3.org/2000/svg">
<path d="M14.449 16.4C14.1549 17.5293 13.4596 18.513 12.493 19.1669C11.5264 19.8209 10.3547 20.1006 9.19701 19.9535C8.03927 19.8065 6.97469 19.2429 6.20227 18.368C5.42986 17.4932 5.00247 16.367 5 15.2C4.99971 14.2806 5.26342 13.3806 5.75979 12.6068C6.25615 11.833 6.96429 11.218 7.8 10.835" stroke="#4F4F4F" stroke-width="1.5" stroke-linecap="round" stroke-linejoin="round"/>
<path d="M9.80005 7.2002L10.495 13.4582C10.5233 13.7126 10.648 13.9465 10.8436 14.1117C11.0391 14.2769 11.2905 14.3608 11.546 14.3462L16.59 14.0582C16.7221 14.0506 16.8544 14.0694 16.9792 14.1133C17.104 14.1573 17.2188 14.2255 17.3171 14.3142C17.4153 14.4028 17.4949 14.5101 17.5514 14.6297C17.6079 14.7494 17.64 14.879 17.646 15.0112L17.756 17.4452C17.7676 17.7025 17.8781 17.9455 18.0644 18.1234C18.2507 18.3013 18.4984 18.4005 18.756 18.4002H19" stroke="#4F4F4F" stroke-width="1.5" stroke-linecap="round" stroke-linejoin="round"/>
<path d="M12.75 10.4H15.75M11.2 5.6C11.2 6.02435 11.0314 6.43131 10.7314 6.73137C10.4313 7.03143 10.0243 7.2 9.6 7.2C9.17565 7.2 8.76869 7.03143 8.46863 6.73137C8.16857 6.43131 8 6.02435 8 5.6C8 5.17565 8.16857 4.76869 8.46863 4.46863C8.76869 4.16857 9.17565 4 9.6 4C10.0243 4 10.4313 4.16857 10.7314 4.46863C11.0314 4.76869 11.2 5.17565 11.2 5.6Z" stroke="#4F4F4F" stroke-width="1.5" stroke-linecap="round" stroke-linejoin="round"/>
</svg>
