<svg width="24" height="24" viewBox="0 0 24 24" fill="none" xmlns="http://www.w3.org/2000/svg">
<path d="M12 20C13.0508 20.0013 14.0914 19.795 15.0622 19.3928C16.033 18.9907 16.9147 18.4007 17.6568 17.6568C18.4007 16.9147 18.9907 16.033 19.3928 15.0622C19.795 14.0914 20.0013 13.0508 20 12C20.0013 10.9492 19.795 9.90858 19.3928 8.9378C18.9907 7.96703 18.4007 7.08528 17.6568 6.34321C16.9147 5.59927 16.033 5.00929 15.0622 4.60717C14.0914 4.20505 13.0508 3.99871 12 4.00001C10.9492 3.99871 9.90858 4.20505 8.9378 4.60717C7.96703 5.00929 7.08528 5.59927 6.34321 6.34321C5.59927 7.08528 5.00929 7.96703 4.60717 8.9378C4.20505 9.90858 3.99871 10.9492 4.00001 12C3.99871 13.0508 4.20505 14.0914 4.60717 15.0622C5.00929 16.033 5.59927 16.9147 6.34321 17.6568C7.08528 18.4007 7.96703 18.9907 8.9378 19.3928C9.90858 19.795 10.9492 20.0013 12 20Z" stroke="#4F4F4F" stroke-width="1.3" stroke-linejoin="round"/>
<path d="M8.80005 11.9996L11.2 14.3996L16.0001 9.59961" stroke="#4F4F4F" stroke-width="1.3" stroke-linecap="round" stroke-linejoin="round"/>
</svg>
