<svg width="40" height="40" viewBox="0 0 40 40" fill="none" xmlns="http://www.w3.org/2000/svg">
<circle cx="20" cy="20" r="20" fill="#181818"/>
<path fill-rule="evenodd" clip-rule="evenodd" d="M23.7035 16.3012C23.8598 16.4574 23.9476 16.6694 23.9476 16.8904C23.9476 17.1114 23.8598 17.3234 23.7035 17.4797L16.3378 24.8454C16.1815 25.0017 15.9696 25.0895 15.7486 25.0895C15.5276 25.0895 15.3156 25.0017 15.1593 24.8454C15.003 24.6891 14.9152 24.4771 14.9152 24.2561C14.9152 24.0351 15.003 23.8231 15.1593 23.6669L22.525 16.3012C22.6813 16.1449 22.8932 16.0571 23.1143 16.0571C23.3353 16.0571 23.5472 16.1449 23.7035 16.3012Z" fill="white"/>
<path fill-rule="evenodd" clip-rule="evenodd" d="M24.5873 15.4139C24.7436 15.5702 24.8313 15.7821 24.8313 16.0031L24.8313 21.3064C24.8314 21.5275 24.7436 21.7395 24.5874 21.8959C24.4311 22.0523 24.2191 22.1402 23.9981 22.1402C23.777 22.1403 23.565 22.0526 23.4086 21.8963C23.2523 21.7401 23.1644 21.5281 23.1643 21.307L23.1649 16.8363L18.6948 16.8363C18.4737 16.8363 18.2618 16.7484 18.1055 16.592C17.9492 16.4356 17.8615 16.2236 17.8616 16.0025C17.8617 15.7815 17.9495 15.5695 18.1059 15.4133C18.2623 15.257 18.4743 15.1693 18.6954 15.1693L23.9987 15.1693C24.2195 15.1696 24.4313 15.2576 24.5873 15.4139Z" fill="white"/>
</svg>
