<svg width="24" height="24" viewBox="0 0 24 24" fill="none" xmlns="http://www.w3.org/2000/svg">
<path d="M8.25 11.25C8.05109 11.25 7.86032 11.329 7.71967 11.4697C7.57902 11.6103 7.5 11.8011 7.5 12C7.5 12.1989 7.57902 12.3897 7.71967 12.5303C7.86032 12.671 8.05109 12.75 8.25 12.75H15.75C15.9489 12.75 16.1397 12.671 16.2803 12.5303C16.421 12.3897 16.5 12.1989 16.5 12C16.5 11.8011 16.421 11.6103 16.2803 11.4697C16.1397 11.329 15.9489 11.25 15.75 11.25H8.25Z" fill="#4F4F4F"/>
<path d="M20 12C20 14.1217 19.1571 16.1566 17.6569 17.6569C16.1566 19.1571 14.1217 20 12 20C9.87827 20 7.84344 19.1571 6.34315 17.6569C4.84285 16.1566 4 14.1217 4 12C4 9.87827 4.84285 7.84344 6.34315 6.34315C7.84344 4.84285 9.87827 4 12 4C14.1217 4 16.1566 4.84285 17.6569 6.34315C19.1571 7.84344 20 9.87827 20 12ZM18.5 12C18.5 10.2761 17.8152 8.62279 16.5962 7.40381C15.3772 6.18482 13.7239 5.5 12 5.5C10.2761 5.5 8.62279 6.18482 7.40381 7.40381C6.18482 8.62279 5.5 10.2761 5.5 12C5.5 13.7239 6.18482 15.3772 7.40381 16.5962C8.62279 17.8152 10.2761 18.5 12 18.5C13.7239 18.5 15.3772 17.8152 16.5962 16.5962C17.8152 15.3772 18.5 13.7239 18.5 12Z" fill="#4F4F4F"/>
</svg>
