<svg width="40" height="40" viewBox="0 0 40 40" fill="none" xmlns="http://www.w3.org/2000/svg">
<circle cx="20" cy="20" r="20" fill="white"/>
<path fill-rule="evenodd" clip-rule="evenodd" d="M23.7064 16.3021C23.8627 16.4584 23.9505 16.6704 23.9505 16.8914C23.9505 17.1124 23.8627 17.3244 23.7064 17.4807L16.3407 24.8464C16.1845 25.0026 15.9725 25.0904 15.7515 25.0904C15.5305 25.0904 15.3185 25.0026 15.1622 24.8464C15.006 24.6901 14.9182 24.4781 14.9182 24.2571C14.9182 24.0361 15.006 23.8241 15.1622 23.6678L22.5279 16.3021C22.6842 16.1459 22.8962 16.0581 23.1172 16.0581C23.3382 16.0581 23.5502 16.1459 23.7064 16.3021Z" fill="#181818"/>
<path fill-rule="evenodd" clip-rule="evenodd" d="M24.5848 15.4149C24.741 15.5712 24.8288 15.7831 24.8287 16.0041L24.8287 21.3074C24.8288 21.5285 24.7411 21.7405 24.5848 21.8969C24.4286 22.0532 24.2166 22.1411 23.9955 22.1412C23.7745 22.1413 23.5624 22.0535 23.4061 21.8973C23.2497 21.741 23.1618 21.5291 23.1617 21.308L23.1623 16.8373L18.6922 16.8373C18.4712 16.8372 18.2592 16.7493 18.1029 16.593C17.9467 16.4366 17.8589 16.2246 17.859 16.0035C17.8591 15.7825 17.947 15.5705 18.1033 15.4142C18.2597 15.258 18.4718 15.1702 18.6928 15.1703L23.9961 15.1703C24.217 15.1706 24.4287 15.2585 24.5848 15.4149Z" fill="#181818"/>
</svg>
