<svg width="24" height="24" viewBox="0 0 24 24" fill="none" xmlns="http://www.w3.org/2000/svg">
<path d="M7.11744 17.2721C7.47557 18.0846 8.06256 18.7752 8.80672 19.2596C9.55088 19.744 10.42 20.0012 11.3079 19.9997H13.5251C14.5596 19.9996 15.5517 19.5885 16.2832 18.8569C16.6447 18.4946 16.9311 18.0644 17.1259 17.5911C17.3208 17.1178 17.4202 16.6106 17.4184 16.0988V7.34448M10.5689 10.2854V6.28544C10.5689 5.98365 10.4495 5.6941 10.2368 5.48C10.0242 5.26589 9.73542 5.14459 9.43363 5.14258C9.13053 5.14258 8.83984 5.26299 8.62551 5.47731C8.41118 5.69164 8.29078 5.98233 8.29078 6.28544V13.714L6.43173 12.2283C6.21365 12.0525 5.93987 11.9605 5.65987 11.9689C5.37988 11.9774 5.11215 12.0858 4.90508 12.2744C4.69801 12.4631 4.56528 12.7196 4.53086 12.9976C4.49645 13.2756 4.56263 13.5567 4.71744 13.7902L5.81459 15.4283" stroke="#4F4F4F" stroke-width="1.3" stroke-linecap="round" stroke-linejoin="round"/>
<path d="M12.8546 6.28571V5.14286C12.8546 4.83975 12.7342 4.54906 12.5198 4.33474C12.3055 4.12041 12.0148 4 11.7117 4C11.4086 4 11.1179 4.12041 10.9036 4.33474C10.6893 4.54906 10.5689 4.83975 10.5689 5.14286V6.28571M15.1403 6.28571C15.1403 5.98393 15.0209 5.69438 14.8083 5.48027C14.5956 5.26616 14.3068 5.14487 14.0051 5.14286C13.702 5.14286 13.4113 5.26327 13.1969 5.47759C12.9826 5.69192 12.8622 5.98261 12.8622 6.28571V8M19.7193 5.14286L4.29077 20" stroke="#4F4F4F" stroke-width="1.3" stroke-linecap="round" stroke-linejoin="round"/>
</svg>
