<svg width="24" height="24" viewBox="0 0 24 24" fill="none" xmlns="http://www.w3.org/2000/svg">
<path d="M13.6 4.17758C13.0827 4.07198 12.5493 4.01864 12 4.01758C7.5816 4.01758 4 7.59518 4 12.0088C4 16.4224 7.5816 20 12 20C16.4184 20 20 16.4224 20 12.0088C19.9989 11.461 19.9456 10.9282 19.84 10.4104" stroke="#4F4F4F" stroke-width="1.3" stroke-linecap="round" stroke-linejoin="round"/>
<path d="M12 9.6112C11.116 9.6112 10.4 10.148 10.4 10.8104C10.4 11.472 11.116 12.0088 12 12.0088C12.884 12.0088 13.6 12.5448 13.6 13.2072C13.6 13.8696 12.884 14.4064 12 14.4064M12 9.6112C12.696 9.6112 13.2896 9.9448 13.5088 10.4112M12 9.6112V8.812M12 14.4064C11.304 14.4064 10.7104 14.0728 10.4912 13.6064M12 14.4064V15.2056M19.996 4L16.656 7.3392M15.9968 4.4168L16.0912 6.8872C16.0912 7.4696 16.4392 7.8328 17.0736 7.8784L19.5728 7.996" stroke="#4F4F4F" stroke-width="1.3" stroke-linecap="round" stroke-linejoin="round"/>
</svg>
