<svg width="45" height="45" viewBox="0 0 45 45" fill="none" xmlns="http://www.w3.org/2000/svg">
<circle cx="22.5" cy="22.5" r="22.5" fill="url(#paint0_linear_226_2771)"/>
<path fill-rule="evenodd" clip-rule="evenodd" d="M23.399 15.2998C23.6195 15.2998 23.8322 15.3808 23.997 15.5272C24.1617 15.6737 24.2669 15.8756 24.2927 16.0945L24.299 16.1998C24.2993 16.4292 24.3871 16.6498 24.5446 16.8166C24.7021 16.9834 24.9173 17.0838 25.1463 17.0973C25.3753 17.1107 25.6008 17.0362 25.7767 16.889C25.9526 16.7417 26.0656 16.5329 26.0927 16.3051L26.099 16.1998C26.099 15.9611 26.1938 15.7322 26.3626 15.5634C26.5314 15.3946 26.7603 15.2998 26.999 15.2998H28.799C29.5151 15.2998 30.2019 15.5843 30.7082 16.0906C31.2146 16.597 31.499 17.2837 31.499 17.9998V26.9998C31.499 27.7159 31.2146 28.4026 30.7082 28.909C30.2019 29.4153 29.5151 29.6998 28.799 29.6998H26.999C26.7786 29.6998 26.5658 29.6188 26.4011 29.4724C26.2364 29.3259 26.1311 29.124 26.1053 28.9051L26.099 28.7998C26.0988 28.5704 26.0109 28.3498 25.8535 28.183C25.696 28.0162 25.4808 27.9158 25.2518 27.9024C25.0228 27.8889 24.7973 27.9634 24.6214 28.1106C24.4455 28.2579 24.3324 28.4667 24.3053 28.6945L24.299 28.7998C24.299 29.0385 24.2042 29.2674 24.0354 29.4362C23.8666 29.605 23.6377 29.6998 23.399 29.6998H16.199C15.4829 29.6998 14.7962 29.4153 14.2898 28.909C13.7835 28.4026 13.499 27.7159 13.499 26.9998V17.9998C13.499 17.2837 13.7835 16.597 14.2898 16.0906C14.7962 15.5843 15.4829 15.2998 16.199 15.2998H23.399ZM25.199 23.3998C24.9603 23.3998 24.7314 23.4946 24.5626 23.6634C24.3938 23.8322 24.299 24.0611 24.299 24.2998V25.1998C24.299 25.4385 24.3938 25.6674 24.5626 25.8362C24.7314 26.005 24.9603 26.0998 25.199 26.0998C25.4377 26.0998 25.6666 26.005 25.8354 25.8362C26.0042 25.6674 26.099 25.4385 26.099 25.1998V24.2998C26.099 24.0611 26.0042 23.8322 25.8354 23.6634C25.6666 23.4946 25.4377 23.3998 25.199 23.3998ZM25.199 18.8998C24.9786 18.8998 24.7658 18.9808 24.6011 19.1272C24.4364 19.2737 24.3311 19.4756 24.3053 19.6945L24.299 19.7998V20.6998C24.2993 20.9292 24.3871 21.1498 24.5446 21.3166C24.7021 21.4834 24.9173 21.5838 25.1463 21.5973C25.3753 21.6107 25.6008 21.5362 25.7767 21.389C25.9526 21.2417 26.0656 21.0329 26.0927 20.8051L26.099 20.6998V19.7998C26.099 19.5611 26.0042 19.3322 25.8354 19.1634C25.6666 18.9946 25.4377 18.8998 25.199 18.8998Z" fill="white"/>
<defs>
<linearGradient id="paint0_linear_226_2771" x1="22.5" y1="0" x2="22.5" y2="45" gradientUnits="userSpaceOnUse">
<stop stop-color="#FF4000"/>
<stop offset="1" stop-color="#FF875F"/>
</linearGradient>
</defs>
</svg>
