<svg width="14" height="14" viewBox="0 0 14 14" fill="none" xmlns="http://www.w3.org/2000/svg">
<circle cx="7" cy="7" r="7" fill="#0F9935"/>
<path fill-rule="evenodd" clip-rule="evenodd" d="M10.618 4.45559C10.8252 4.6387 10.8446 4.95547 10.6615 5.16398L6.81881 9.50788C6.77443 9.55806 6.72044 9.59883 6.66004 9.62779C6.59964 9.65675 6.53404 9.6733 6.46713 9.67648C6.40022 9.67966 6.33335 9.66939 6.27047 9.64629C6.2076 9.62318 6.14999 9.58771 6.10106 9.54196L3.59496 7.20294C3.49855 7.11208 3.44204 6.98675 3.43776 6.85434C3.43349 6.72194 3.48181 6.59322 3.57216 6.49634C3.66251 6.39945 3.78754 6.34228 3.91992 6.33731C4.0523 6.33234 4.18127 6.37998 4.27863 6.46982L6.41048 8.45465L9.91233 4.49836C9.95599 4.44897 10.009 4.40868 10.0682 4.37979C10.1275 4.3509 10.1919 4.33399 10.2577 4.33001C10.3235 4.32604 10.3894 4.33509 10.4517 4.35663C10.514 4.37818 10.5714 4.41181 10.6207 4.45559H10.618Z" fill="white"/>
</svg>
