<svg width="32" height="32" viewBox="0 0 32 32" fill="none" xmlns="http://www.w3.org/2000/svg">
<circle cx="16" cy="16" r="15.5" fill="white" stroke="#D8D8D8"/>
<path fill-rule="evenodd" clip-rule="evenodd" d="M20.1914 16.0016C20.1914 16.1784 20.1212 16.348 19.9961 16.473C19.8711 16.5981 19.7016 16.6683 19.5247 16.6683H11.1914C11.0146 16.6683 10.845 16.5981 10.72 16.473C10.595 16.348 10.5247 16.1784 10.5247 16.0016C10.5247 15.8248 10.595 15.6552 10.72 15.5302C10.845 15.4052 11.0146 15.335 11.1914 15.335H19.5247C19.7016 15.335 19.8711 15.4052 19.9961 15.5302C20.1212 15.6552 20.1914 15.8248 20.1914 16.0016Z" fill="#181818"/>
<path fill-rule="evenodd" clip-rule="evenodd" d="M21.1914 15.9988C21.1914 16.1756 21.1211 16.3452 20.9961 16.4702L17.9961 19.4702C17.8711 19.5953 17.7015 19.6656 17.5246 19.6656C17.3478 19.6657 17.1782 19.5955 17.0531 19.4705C16.928 19.3455 16.8577 19.1759 16.8576 18.9991C16.8575 18.8222 16.9277 18.6526 17.0527 18.5275L19.5821 15.9988L17.0534 13.4702C16.9284 13.3451 16.8582 13.1754 16.8583 12.9986C16.8583 12.8218 16.9286 12.6522 17.0537 12.5272C17.1788 12.4022 17.3485 12.332 17.5253 12.332C17.7022 12.3321 17.8717 12.4024 17.9967 12.5275L20.9967 15.5275C21.1215 15.6526 21.1915 15.8221 21.1914 15.9988Z" fill="#181818"/>
</svg>
