<svg width="14" height="14" viewBox="0 0 14 14" fill="none" xmlns="http://www.w3.org/2000/svg">
<circle cx="7" cy="7" r="7" fill="#FF0000"/>
<path d="M7.18969 7.66874L4.85334 10.0051C4.76592 10.0925 4.65467 10.1362 4.51957 10.1362C4.38448 10.1362 4.27322 10.0925 4.18581 10.0051C4.09839 9.91768 4.05469 9.80643 4.05469 9.67133C4.05469 9.53624 4.09839 9.42498 4.18581 9.33757L6.52216 7.00121L4.18581 4.66486C4.09839 4.57745 4.05469 4.46619 4.05469 4.3311C4.05469 4.196 4.09839 4.08475 4.18581 3.99733C4.27322 3.90992 4.38448 3.86621 4.51957 3.86621C4.65467 3.86621 4.76592 3.90992 4.85334 3.99733L7.18969 6.33369L9.52604 3.99733C9.61346 3.90992 9.72471 3.86621 9.85981 3.86621C9.9949 3.86621 10.1062 3.90992 10.1936 3.99733C10.281 4.08475 10.3247 4.196 10.3247 4.3311C10.3247 4.46619 10.281 4.57745 10.1936 4.66486L7.85722 7.00121L10.1936 9.33757C10.281 9.42498 10.3247 9.53624 10.3247 9.67133C10.3247 9.80643 10.281 9.91768 10.1936 10.0051C10.1062 10.0925 9.9949 10.1362 9.85981 10.1362C9.72471 10.1362 9.61346 10.0925 9.52604 10.0051L7.18969 7.66874Z" fill="white"/>
</svg>
