<svg width="32" height="32" viewBox="0 0 32 32" fill="none" xmlns="http://www.w3.org/2000/svg">
<circle cx="16" cy="16" r="15.5" transform="matrix(-1 0 0 1 32 0)" fill="white" stroke="#D8D8D8"/>
<path fill-rule="evenodd" clip-rule="evenodd" d="M11.8086 16.0016C11.8086 16.1784 11.8788 16.348 12.0039 16.473C12.1289 16.5981 12.2984 16.6683 12.4753 16.6683H20.8086C20.9854 16.6683 21.155 16.5981 21.28 16.473C21.405 16.348 21.4753 16.1784 21.4753 16.0016C21.4753 15.8248 21.405 15.6552 21.28 15.5302C21.155 15.4052 20.9854 15.335 20.8086 15.335H12.4753C12.2984 15.335 12.1289 15.4052 12.0039 15.5302C11.8788 15.6552 11.8086 15.8248 11.8086 16.0016Z" fill="#181818"/>
<path fill-rule="evenodd" clip-rule="evenodd" d="M10.8086 15.9988C10.8086 16.1756 10.8789 16.3452 11.0039 16.4702L14.0039 19.4702C14.1289 19.5953 14.2985 19.6656 14.4754 19.6656C14.6522 19.6657 14.8218 19.5955 14.9469 19.4705C15.072 19.3455 15.1423 19.1759 15.1424 18.9991C15.1425 18.8222 15.0723 18.6526 14.9473 18.5275L12.4179 15.9988L14.9466 13.4702C15.0716 13.3451 15.1418 13.1754 15.1417 12.9986C15.1417 12.8218 15.0714 12.6522 14.9463 12.5272C14.8212 12.4022 14.6515 12.332 14.4747 12.332C14.2978 12.3321 14.1283 12.4024 14.0033 12.5275L11.0033 15.5275C10.8785 15.6526 10.8085 15.8221 10.8086 15.9988Z" fill="#181818"/>
</svg>
